<svg width="50" height="36" viewBox="0 0 50 36" fill="none" xmlns="http://www.w3.org/2000/svg">
<path d="M22.75 36H12.625C9.2125 36 6.29725 34.8187 3.87925 32.4562C1.45975 30.0937 0.25 27.2062 0.25 23.7937C0.25 20.8687 1.13125 18.2625 2.89375 15.975C4.65625 13.6875 6.9625 12.225 9.8125 11.5875C10.75 8.1375 12.625 5.34375 15.4375 3.20625C18.25 1.06875 21.4375 0 25 0C29.3875 0 33.109 1.52775 36.1645 4.58325C39.2215 7.64025 40.75 11.3625 40.75 15.75C43.3375 16.05 45.4848 17.1653 47.1918 19.0958C48.8973 21.0278 49.75 23.2875 49.75 25.875C49.75 28.6875 48.766 31.0785 46.798 33.048C44.8285 35.016 42.4375 36 39.625 36H27.25V19.9125L30.85 23.4L34 20.25L25 11.25L16 20.25L19.15 23.4L22.75 19.9125V36Z" fill="#F8F8F8"/>
</svg>
