<svg width="20" height="20" viewBox="0 0 20 20" fill="none" xmlns="http://www.w3.org/2000/svg">
<path fill-rule="evenodd" clip-rule="evenodd" d="M9.99992 0.833008C4.93742 0.833008 0.833252 4.93717 0.833252 9.99967C0.833252 15.0622 4.93742 19.1663 9.99992 19.1663C15.0624 19.1663 19.1666 15.0622 19.1666 9.99967C19.1666 4.93717 15.0624 0.833008 9.99992 0.833008ZM2.49992 9.99967C2.49992 11.7413 3.09409 13.3447 4.08992 14.618C4.78928 13.6996 5.6915 12.9553 6.72611 12.4433C7.76072 11.9312 8.89971 11.6653 10.0541 11.6663C11.1935 11.6653 12.3182 11.9243 13.3424 12.4237C14.3665 12.923 15.2632 13.6496 15.9641 14.548C16.6861 13.601 17.1723 12.4957 17.3823 11.3235C17.5924 10.1513 17.5203 8.94595 17.172 7.80716C16.8237 6.66837 16.2093 5.62888 15.3795 4.77471C14.5497 3.92053 13.5285 3.27622 12.4002 2.8951C11.272 2.51397 10.0693 2.40698 8.89147 2.58299C7.71369 2.75899 6.59474 3.21292 5.62723 3.90722C4.65971 4.60152 3.87143 5.51623 3.32761 6.57567C2.78379 7.63511 2.50007 8.80882 2.49992 9.99967ZM9.99992 17.4997C8.27821 17.5023 6.60847 16.91 5.27325 15.823C5.81069 15.0536 6.52603 14.4254 7.35841 13.9919C8.19079 13.5584 9.11558 13.3323 10.0541 13.333C10.9809 13.3323 11.8945 13.5527 12.719 13.9759C13.5436 14.3991 14.2552 15.0129 14.7949 15.7663C13.4493 16.8886 11.7521 17.5021 9.99992 17.4997Z" fill="#01273C"/>
</svg>
