<svg width="15" height="21" viewBox="0 0 15 21" fill="none" xmlns="http://www.w3.org/2000/svg">
<path d="M5.49578 11.6208L6.29787 9.00825L4.18953 7.31242H6.80203L7.62703 4.74575L8.45203 7.31242H11.0645L8.93328 9.00825L9.73537 11.6208L7.62703 9.99367L5.49578 11.6208ZM2.12703 20.1458V13.0645C1.54648 12.4228 1.09578 11.6895 0.774951 10.8645C0.454118 10.0395 0.293701 9.16103 0.293701 8.22909C0.293701 6.18186 1.00412 4.44784 2.42495 3.027C3.84578 1.60617 5.57981 0.895752 7.62703 0.895752C9.67426 0.895752 11.4083 1.60617 12.8291 3.027C14.25 4.44784 14.9604 6.18186 14.9604 8.22909C14.9604 9.16103 14.8 10.0395 14.4791 10.8645C14.1583 11.6895 13.7076 12.4228 13.127 13.0645V20.1458L7.62703 18.3124L2.12703 20.1458ZM7.62703 13.7291C9.15481 13.7291 10.4534 13.1944 11.5229 12.1249C12.5923 11.0555 13.127 9.75686 13.127 8.22909C13.127 6.70131 12.5923 5.4027 11.5229 4.33325C10.4534 3.26381 9.15481 2.72909 7.62703 2.72909C6.09926 2.72909 4.80065 3.26381 3.7312 4.33325C2.66176 5.4027 2.12703 6.70131 2.12703 8.22909C2.12703 9.75686 2.66176 11.0555 3.7312 12.1249C4.80065 13.1944 6.09926 13.7291 7.62703 13.7291Z" fill="white"/>
</svg>
