<svg width="28" height="21" viewBox="0 0 28 21" fill="none" xmlns="http://www.w3.org/2000/svg">
<path d="M23.0874 1.66256C21.4249 0.887558 19.6249 0.325058 17.7499 5.74977e-05C17.7335 -0.000468256 17.7171 0.00261685 17.702 0.00909595C17.6869 0.015575 17.6734 0.0252908 17.6624 0.0375578C17.4374 0.450058 17.1749 0.987557 16.9999 1.40006C15.0111 1.10006 12.9887 1.10006 10.9999 1.40006C10.8249 0.975057 10.5624 0.450058 10.3249 0.0375578C10.3124 0.0125578 10.2749 5.74977e-05 10.2374 5.74977e-05C8.3624 0.325058 6.5749 0.887558 4.8999 1.66256C4.8874 1.66256 4.8749 1.67506 4.8624 1.68756C1.4624 6.77506 0.524902 11.7251 0.987402 16.6251C0.987402 16.6501 0.999902 16.6751 1.0249 16.6876C3.2749 18.3376 5.4374 19.3376 7.5749 20.0001C7.6124 20.0126 7.6499 20.0001 7.6624 19.9751C8.1624 19.2876 8.6124 18.5626 8.9999 17.8001C9.0249 17.7501 8.9999 17.7001 8.9499 17.6876C8.2374 17.4126 7.5624 17.0876 6.8999 16.7126C6.8499 16.6876 6.8499 16.6126 6.8874 16.5751C7.0249 16.4751 7.1624 16.3626 7.2999 16.2626C7.3249 16.2376 7.3624 16.2376 7.3874 16.2501C11.6874 18.2126 16.3249 18.2126 20.5749 16.2501C20.5999 16.2376 20.6374 16.2376 20.6624 16.2626C20.7999 16.3751 20.9374 16.4751 21.0749 16.5876C21.1249 16.6251 21.1249 16.7001 21.0624 16.7251C20.4124 17.1126 19.7249 17.4251 19.0124 17.7001C18.9624 17.7126 18.9499 17.7751 18.9624 17.8126C19.3624 18.5751 19.8124 19.3001 20.2999 19.9876C20.3374 20.0001 20.3749 20.0126 20.4124 20.0001C22.5624 19.3376 24.7249 18.3376 26.9749 16.6876C26.9999 16.6751 27.0124 16.6501 27.0124 16.6251C27.5624 10.9626 26.0999 6.05006 23.1374 1.68756C23.1249 1.67506 23.1124 1.66256 23.0874 1.66256ZM9.6499 13.6376C8.3624 13.6376 7.2874 12.4501 7.2874 10.9876C7.2874 9.52506 8.3374 8.33756 9.6499 8.33756C10.9749 8.33756 12.0249 9.53756 12.0124 10.9876C12.0124 12.4501 10.9624 13.6376 9.6499 13.6376ZM18.3624 13.6376C17.0749 13.6376 15.9999 12.4501 15.9999 10.9876C15.9999 9.52506 17.0499 8.33756 18.3624 8.33756C19.6874 8.33756 20.7374 9.53756 20.7249 10.9876C20.7249 12.4501 19.6874 13.6376 18.3624 13.6376Z" fill="#F8F8F8"/>
</svg>
