<svg width="145" height="42" viewBox="0 0 145 42" fill="none" xmlns="http://www.w3.org/2000/svg">
<path d="M8.21231 1L1.25 9.33333L1.25 41L135.274 41L143.977 32.6667V1L8.21231 1Z" fill="black" stroke="url(#paint0_linear_400_474)"/>
<line x1="123.568" y1="1" x2="123.568" y2="41" stroke="url(#paint1_linear_400_474)"/>
<ellipse cx="133.523" cy="10.5452" rx="2.27273" ry="2.27273" fill="white"/>
<ellipse cx="133.523" cy="20.5452" rx="2.27273" ry="2.27273" fill="white"/>
<ellipse cx="133.523" cy="30.5452" rx="2.27273" ry="2.27273" fill="white"/>
<path d="M48.0186 26.5918V27.8184H41.9951V26.5918H48.0186ZM42.2998 16.4434V27.8184H40.792V16.4434H42.2998ZM47.2217 21.334V22.5605H41.9951V21.334H47.2217ZM47.9404 16.4434V17.6777H41.9951V16.4434H47.9404ZM55.0576 16.4277H55.1826V17.6543H55.0576C54.292 17.6543 53.6514 17.7793 53.1357 18.0293C52.6201 18.2741 52.2113 18.6048 51.9092 19.0215C51.6071 19.4329 51.3883 19.8965 51.2529 20.4121C51.1227 20.9277 51.0576 21.4512 51.0576 21.9824V23.6543C51.0576 24.1595 51.1175 24.6074 51.2373 24.998C51.3571 25.3835 51.5212 25.709 51.7295 25.9746C51.9378 26.2402 52.1722 26.4408 52.4326 26.5762C52.6982 26.7116 52.9743 26.7793 53.2607 26.7793C53.5941 26.7793 53.891 26.7168 54.1514 26.5918C54.4118 26.4616 54.6305 26.2819 54.8076 26.0527C54.9899 25.8184 55.1279 25.5423 55.2217 25.2246C55.3154 24.9069 55.3623 24.5579 55.3623 24.1777C55.3623 23.8392 55.3206 23.5137 55.2373 23.2012C55.154 22.8835 55.0264 22.6022 54.8545 22.3574C54.6826 22.1074 54.4665 21.9121 54.2061 21.7715C53.9508 21.6257 53.6462 21.5527 53.292 21.5527C52.891 21.5527 52.516 21.6517 52.167 21.8496C51.8232 22.0423 51.5394 22.2975 51.3154 22.6152C51.0967 22.9277 50.9717 23.2689 50.9404 23.6387L50.1748 23.6309C50.2477 23.0475 50.3831 22.5501 50.5811 22.1387C50.7842 21.722 51.0342 21.3835 51.3311 21.123C51.6331 20.8574 51.9691 20.6647 52.3389 20.5449C52.7139 20.4199 53.1097 20.3574 53.5264 20.3574C54.0941 20.3574 54.5837 20.4642 54.9951 20.6777C55.4066 20.8913 55.7451 21.1777 56.0107 21.5371C56.2764 21.8913 56.4717 22.2923 56.5967 22.7402C56.7269 23.1829 56.792 23.6387 56.792 24.1074C56.792 24.6439 56.7165 25.1465 56.5654 25.6152C56.4144 26.084 56.1878 26.4954 55.8857 26.8496C55.5889 27.2038 55.2217 27.4798 54.7842 27.6777C54.3467 27.8757 53.8389 27.9746 53.2607 27.9746C52.6462 27.9746 52.1097 27.8496 51.6514 27.5996C51.193 27.3444 50.8128 27.0059 50.5107 26.584C50.2087 26.1621 49.9821 25.6934 49.8311 25.1777C49.68 24.6621 49.6045 24.1387 49.6045 23.6074V22.9277C49.6045 22.1257 49.6852 21.3392 49.8467 20.5684C50.0081 19.7975 50.2868 19.0996 50.6826 18.4746C51.0837 17.8496 51.6383 17.3522 52.3467 16.9824C53.055 16.6126 53.9587 16.4277 55.0576 16.4277ZM58.6045 27.0527C58.6045 26.8079 58.68 26.6022 58.8311 26.4355C58.9873 26.2637 59.2113 26.1777 59.5029 26.1777C59.7946 26.1777 60.016 26.2637 60.167 26.4355C60.3232 26.6022 60.4014 26.8079 60.4014 27.0527C60.4014 27.2923 60.3232 27.4954 60.167 27.6621C60.016 27.8288 59.7946 27.9121 59.5029 27.9121C59.2113 27.9121 58.9873 27.8288 58.8311 27.6621C58.68 27.4954 58.6045 27.2923 58.6045 27.0527ZM58.6123 20.1543C58.6123 19.9095 58.6878 19.7038 58.8389 19.5371C58.9951 19.3652 59.2191 19.2793 59.5107 19.2793C59.8024 19.2793 60.0238 19.3652 60.1748 19.5371C60.3311 19.7038 60.4092 19.9095 60.4092 20.1543C60.4092 20.3939 60.3311 20.597 60.1748 20.7637C60.0238 20.9303 59.8024 21.0137 59.5107 21.0137C59.2191 21.0137 58.9951 20.9303 58.8389 20.7637C58.6878 20.597 58.6123 20.3939 58.6123 20.1543ZM70.9404 17.4512L67.1748 27.8184H65.6357L69.9717 16.4434H70.9639L70.9404 17.4512ZM74.0967 27.8184L70.3232 17.4512L70.2998 16.4434H71.292L75.6436 27.8184H74.0967ZM73.9014 23.6074V24.8418H67.5107V23.6074H73.9014ZM84.2451 26.6309V27.8184H76.7998V26.7793L80.5264 22.6309C80.9847 22.1204 81.3389 21.6882 81.5889 21.334C81.8441 20.9746 82.0212 20.6543 82.1201 20.373C82.2243 20.0866 82.2764 19.7949 82.2764 19.498C82.2764 19.123 82.1982 18.7845 82.042 18.4824C81.891 18.1751 81.667 17.9303 81.3701 17.748C81.0732 17.5658 80.7139 17.4746 80.292 17.4746C79.7868 17.4746 79.3649 17.5736 79.0264 17.7715C78.693 17.9642 78.443 18.235 78.2764 18.584C78.1097 18.9329 78.0264 19.334 78.0264 19.7871H76.5811C76.5811 19.1465 76.7217 18.5605 77.0029 18.0293C77.2842 17.498 77.7008 17.0762 78.2529 16.7637C78.805 16.446 79.4847 16.2871 80.292 16.2871C81.0107 16.2871 81.6253 16.4147 82.1357 16.6699C82.6462 16.9199 83.0368 17.2741 83.3076 17.7324C83.5837 18.1855 83.7217 18.7168 83.7217 19.3262C83.7217 19.6595 83.6644 19.998 83.5498 20.3418C83.4404 20.6803 83.2868 21.0189 83.0889 21.3574C82.8962 21.696 82.6696 22.0293 82.4092 22.3574C82.154 22.6855 81.8805 23.0085 81.5889 23.3262L78.542 26.6309H84.2451Z" fill="white"/>
<defs>
<linearGradient id="paint0_linear_400_474" x1="4.1237" y1="2.20805" x2="23.2665" y2="72.4577" gradientUnits="userSpaceOnUse">
<stop offset="0.0001" stop-color="#2C98EB"/>
<stop offset="1" stop-color="#1A3648"/>
</linearGradient>
<linearGradient id="paint1_linear_400_474" x1="123.038" y1="1.80537" x2="121.153" y2="1.8512" gradientUnits="userSpaceOnUse">
<stop offset="0.0001" stop-color="#2C98EB"/>
<stop offset="1" stop-color="#1A3648"/>
</linearGradient>
</defs>
</svg>
