<svg width="11" height="11" viewBox="0 0 11 11" fill="none" xmlns="http://www.w3.org/2000/svg">
<path d="M4 9.5C2.88333 9.5 1.9375 9.1125 1.1625 8.3375C0.3875 7.5625 0 6.61667 0 5.5C0 4.38333 0.3875 3.4375 1.1625 2.6625C1.9375 1.8875 2.88333 1.5 4 1.5C5.11667 1.5 6.0625 1.8875 6.8375 2.6625C7.6125 3.4375 8 4.38333 8 5.5C8 6.61667 7.6125 7.5625 6.8375 8.3375C6.0625 9.1125 5.11667 9.5 4 9.5ZM3.5 7.25H4.5V4.75H5.5V4H2.5V4.75H3.5V7.25ZM9 4L8.375 2.625L7 2L8.375 1.375L9 0L9.625 1.375L11 2L9.625 2.625L9 4ZM9 11L8.375 9.625L7 9L8.375 8.375L9 7L9.625 8.375L11 9L9.625 9.625L9 11Z" fill="#FFC700"/>
</svg>
