<svg width="12" height="11" viewBox="0 0 12 11" fill="none" xmlns="http://www.w3.org/2000/svg">
<path d="M2.62491 0.5C2.44491 0.5 2.28141 0.60275 2.20303 0.76475L0.796783 3.671C0.758073 3.75102 0.742913 3.8404 0.753071 3.9287C0.76323 4.01701 0.798289 4.10061 0.854158 4.16975L5.63541 10.076C5.67935 10.1303 5.73489 10.1742 5.79795 10.2043C5.86102 10.2344 5.93002 10.25 5.99991 10.25C6.06979 10.25 6.1388 10.2344 6.20186 10.2043C6.26493 10.1742 6.32047 10.1303 6.36441 10.076L11.1457 4.16975C11.2015 4.10061 11.2366 4.01701 11.2467 3.9287C11.2569 3.8404 11.2417 3.75102 11.203 3.671L9.79678 0.76475C9.75845 0.685437 9.69853 0.618533 9.62392 0.571707C9.5493 0.524882 9.463 0.500029 9.37491 0.5H2.62491ZM2.01141 3.3125L2.91891 1.4375H4.30191L3.71578 3.3125H2.01141ZM2.12541 4.25H3.66216L4.73766 7.47725L2.12541 4.25ZM4.65028 4.25H7.34953L5.99991 8.29888L4.65028 4.25ZM8.33766 4.25H9.87441L7.26216 7.47725L8.33766 4.25ZM9.98841 3.3125H8.28366L7.69753 1.4375H9.08053L9.98841 3.3125ZM7.30191 3.3125H4.69791L5.28403 1.4375H6.71578L7.30191 3.3125Z" fill="#E2CF61"/>
</svg>
