<svg width="216" height="172" viewBox="0 0 216 172" fill="none" xmlns="http://www.w3.org/2000/svg">
<path d="M92.7676 1.89062V9H91.8252V1.89062H92.7676ZM97.0596 1.89062L94.1055 5.20605L92.4453 6.92969L92.2891 5.92383L93.5391 4.54688L95.9268 1.89062H97.0596ZM96.1514 9L93.5195 5.5332L94.0811 4.78613L97.2744 9H96.1514ZM99.3152 1.89062V9H98.3729V1.89062H99.3152ZM105.541 8.2334V9H101.986V8.2334H105.541ZM102.171 1.89062V9H101.229V1.89062H102.171ZM111.131 8.2334V9H107.577V8.2334H111.131ZM107.762 1.89062V9H106.82V1.89062H107.762Z" fill="#6B6B6B"/>
<path d="M1.76758 62.8906V70H0.825195V62.8906H1.76758ZM6.05957 62.8906L3.10547 66.2061L1.44531 67.9297L1.28906 66.9238L2.53906 65.5469L4.92676 62.8906H6.05957ZM5.15137 70L2.51953 66.5332L3.08105 65.7861L6.27441 70H5.15137ZM10.3123 62.8906L7.34844 70.6104H6.57207L9.54082 62.8906H10.3123ZM13.5592 70H12.0748L12.0846 69.2334H13.5592C14.067 69.2334 14.4902 69.1276 14.8287 68.916C15.1673 68.7012 15.4212 68.4017 15.5904 68.0176C15.763 67.6302 15.8492 67.1777 15.8492 66.6602V66.2256C15.8492 65.8187 15.8004 65.4574 15.7027 65.1416C15.6051 64.8226 15.4618 64.554 15.273 64.3359C15.0842 64.1146 14.8531 63.9469 14.5797 63.833C14.3095 63.7191 13.9986 63.6621 13.6471 63.6621H12.0455V62.8906H13.6471C14.1126 62.8906 14.5374 62.9688 14.9215 63.125C15.3056 63.278 15.636 63.501 15.9127 63.7939C16.1926 64.0837 16.4075 64.4352 16.5572 64.8486C16.707 65.2588 16.7818 65.721 16.7818 66.2354V66.6602C16.7818 67.1745 16.707 67.6383 16.5572 68.0518C16.4075 68.4619 16.191 68.8118 15.9078 69.1016C15.6279 69.3913 15.2893 69.6143 14.8922 69.7705C14.4983 69.9235 14.054 70 13.5592 70ZM12.5777 62.8906V70H11.6354V62.8906H12.5777Z" fill="#6B6B6B"/>
<path d="M38.0791 165.46V168.062C37.9912 168.193 37.8512 168.339 37.6592 168.502C37.4671 168.661 37.2018 168.801 36.8633 168.922C36.528 169.039 36.0951 169.098 35.5645 169.098C35.1315 169.098 34.7327 169.023 34.3682 168.873C34.0068 168.72 33.6927 168.499 33.4258 168.209C33.1621 167.916 32.957 167.561 32.8105 167.145C32.6673 166.725 32.5957 166.249 32.5957 165.719V165.167C32.5957 164.636 32.6576 164.163 32.7812 163.746C32.9082 163.329 33.0938 162.976 33.3379 162.687C33.582 162.394 33.8815 162.172 34.2363 162.022C34.5911 161.869 34.998 161.793 35.457 161.793C36.0007 161.793 36.4548 161.887 36.8193 162.076C37.1872 162.262 37.4736 162.519 37.6787 162.848C37.887 163.176 38.0205 163.551 38.0791 163.971H37.1367C37.0944 163.714 37.0098 163.479 36.8828 163.268C36.7591 163.056 36.5817 162.887 36.3506 162.76C36.1195 162.63 35.8216 162.564 35.457 162.564C35.1283 162.564 34.8434 162.625 34.6025 162.745C34.3617 162.866 34.1631 163.038 34.0068 163.263C33.8506 163.487 33.7334 163.759 33.6553 164.078C33.5804 164.397 33.543 164.757 33.543 165.157V165.719C33.543 166.129 33.5902 166.495 33.6846 166.817C33.7822 167.14 33.9206 167.415 34.0996 167.643C34.2786 167.867 34.4919 168.038 34.7393 168.155C34.9899 168.272 35.2666 168.331 35.5693 168.331C35.9046 168.331 36.1764 168.303 36.3848 168.248C36.5931 168.189 36.7559 168.121 36.873 168.043C36.9902 167.962 37.0798 167.885 37.1416 167.813V166.222H35.4961V165.46H38.0791ZM43.909 161.891H44.8465V166.7C44.8465 167.234 44.7277 167.678 44.49 168.033C44.2524 168.388 43.9367 168.655 43.5428 168.834C43.1521 169.01 42.7273 169.098 42.2684 169.098C41.7866 169.098 41.3504 169.01 40.9598 168.834C40.5724 168.655 40.2648 168.388 40.0369 168.033C39.8123 167.678 39.7 167.234 39.7 166.7V161.891H40.6326V166.7C40.6326 167.071 40.701 167.377 40.8377 167.618C40.9744 167.859 41.1648 168.038 41.409 168.155C41.6564 168.272 41.9428 168.331 42.2684 168.331C42.5971 168.331 42.8836 168.272 43.1277 168.155C43.3751 168.038 43.5672 167.859 43.7039 167.618C43.8406 167.377 43.909 167.071 43.909 166.7V161.891ZM51.9947 161.891V169H51.0475L47.4684 163.517V169H46.526V161.891H47.4684L51.0621 167.389V161.891H51.9947ZM57.6537 167.203C57.6537 167.037 57.6277 166.891 57.5756 166.764C57.5268 166.633 57.4389 166.516 57.3119 166.412C57.1882 166.308 57.0157 166.209 56.7943 166.114C56.5762 166.02 56.2995 165.924 55.9643 165.826C55.6127 165.722 55.2953 165.606 55.0121 165.479C54.7289 165.349 54.4864 165.201 54.2846 165.035C54.0827 164.869 53.9281 164.679 53.8207 164.464C53.7133 164.249 53.6596 164.003 53.6596 163.727C53.6596 163.45 53.7165 163.194 53.8305 162.96C53.9444 162.726 54.1072 162.522 54.3188 162.35C54.5336 162.174 54.7891 162.037 55.0854 161.939C55.3816 161.842 55.712 161.793 56.0766 161.793C56.6104 161.793 57.0629 161.896 57.434 162.101C57.8083 162.302 58.0932 162.568 58.2885 162.896C58.4838 163.222 58.5814 163.57 58.5814 163.941H57.6439C57.6439 163.674 57.587 163.438 57.473 163.233C57.3591 163.025 57.1866 162.862 56.9555 162.745C56.7243 162.625 56.4314 162.564 56.0766 162.564C55.7413 162.564 55.4646 162.615 55.2465 162.716C55.0284 162.817 54.8656 162.953 54.7582 163.126C54.654 163.299 54.602 163.495 54.602 163.717C54.602 163.867 54.6329 164.003 54.6947 164.127C54.7598 164.247 54.8591 164.36 54.9926 164.464C55.1293 164.568 55.3018 164.664 55.5102 164.752C55.7217 164.84 55.974 164.924 56.267 165.006C56.6706 165.12 57.0189 165.247 57.3119 165.387C57.6049 165.527 57.8458 165.685 58.0346 165.86C58.2266 166.033 58.3682 166.23 58.4594 166.451C58.5538 166.669 58.601 166.917 58.601 167.193C58.601 167.483 58.5424 167.745 58.4252 167.979C58.308 168.214 58.1404 168.414 57.9223 168.58C57.7042 168.746 57.4421 168.875 57.1361 168.966C56.8334 169.054 56.4949 169.098 56.1205 169.098C55.7917 169.098 55.4678 169.052 55.1488 168.961C54.8331 168.87 54.545 168.733 54.2846 168.551C54.0274 168.368 53.8207 168.144 53.6645 167.877C53.5115 167.607 53.435 167.294 53.435 166.939H54.3725C54.3725 167.184 54.4197 167.394 54.5141 167.569C54.6085 167.742 54.737 167.885 54.8998 167.999C55.0658 168.113 55.253 168.198 55.4613 168.253C55.6729 168.305 55.8926 168.331 56.1205 168.331C56.4493 168.331 56.7276 168.285 56.9555 168.194C57.1833 168.103 57.3559 167.973 57.473 167.804C57.5935 167.634 57.6537 167.434 57.6537 167.203Z" fill="#6B6B6B"/>
<path d="M154.614 167.203C154.614 167.037 154.588 166.891 154.536 166.764C154.487 166.633 154.399 166.516 154.272 166.412C154.149 166.308 153.976 166.209 153.755 166.114C153.537 166.02 153.26 165.924 152.925 165.826C152.573 165.722 152.256 165.606 151.973 165.479C151.689 165.349 151.447 165.201 151.245 165.035C151.043 164.869 150.889 164.679 150.781 164.464C150.674 164.249 150.62 164.003 150.62 163.727C150.62 163.45 150.677 163.194 150.791 162.96C150.905 162.726 151.068 162.522 151.279 162.35C151.494 162.174 151.75 162.037 152.046 161.939C152.342 161.842 152.673 161.793 153.037 161.793C153.571 161.793 154.023 161.896 154.395 162.101C154.769 162.302 155.054 162.568 155.249 162.896C155.444 163.222 155.542 163.57 155.542 163.941H154.604C154.604 163.674 154.548 163.438 154.434 163.233C154.32 163.025 154.147 162.862 153.916 162.745C153.685 162.625 153.392 162.564 153.037 162.564C152.702 162.564 152.425 162.615 152.207 162.716C151.989 162.817 151.826 162.953 151.719 163.126C151.615 163.299 151.562 163.495 151.562 163.717C151.562 163.867 151.593 164.003 151.655 164.127C151.72 164.247 151.82 164.36 151.953 164.464C152.09 164.568 152.262 164.664 152.471 164.752C152.682 164.84 152.935 164.924 153.228 165.006C153.631 165.12 153.979 165.247 154.272 165.387C154.565 165.527 154.806 165.685 154.995 165.86C155.187 166.033 155.329 166.23 155.42 166.451C155.514 166.669 155.562 166.917 155.562 167.193C155.562 167.483 155.503 167.745 155.386 167.979C155.269 168.214 155.101 168.414 154.883 168.58C154.665 168.746 154.403 168.875 154.097 168.966C153.794 169.054 153.455 169.098 153.081 169.098C152.752 169.098 152.428 169.052 152.109 168.961C151.794 168.87 151.506 168.733 151.245 168.551C150.988 168.368 150.781 168.144 150.625 167.877C150.472 167.607 150.396 167.294 150.396 166.939H151.333C151.333 167.184 151.38 167.394 151.475 167.569C151.569 167.742 151.698 167.885 151.86 167.999C152.026 168.113 152.214 168.198 152.422 168.253C152.633 168.305 152.853 168.331 153.081 168.331C153.41 168.331 153.688 168.285 153.916 168.194C154.144 168.103 154.316 167.973 154.434 167.804C154.554 167.634 154.614 167.434 154.614 167.203ZM157.905 161.891V169H156.963V161.891H157.905ZM162.197 161.891L159.243 165.206L157.583 166.93L157.427 165.924L158.677 164.547L161.064 161.891H162.197ZM161.289 169L158.657 165.533L159.219 164.786L162.412 169H161.289ZM164.453 161.891V169H163.51V161.891H164.453ZM170.678 168.233V169H167.123V168.233H170.678ZM167.309 161.891V169H166.367V161.891H167.309ZM176.269 168.233V169H172.714V168.233H176.269ZM172.9 161.891V169H171.957V161.891H172.9Z" fill="#6B6B6B"/>
<path d="M185.749 71H184.265L184.274 70.2334H185.749C186.257 70.2334 186.68 70.1276 187.019 69.916C187.357 69.7012 187.611 69.4017 187.78 69.0176C187.953 68.6302 188.039 68.1777 188.039 67.6602V67.2256C188.039 66.8187 187.99 66.4574 187.893 66.1416C187.795 65.8226 187.652 65.554 187.463 65.3359C187.274 65.1146 187.043 64.9469 186.77 64.833C186.499 64.7191 186.188 64.6621 185.837 64.6621H184.235V63.8906H185.837C186.302 63.8906 186.727 63.9688 187.111 64.125C187.495 64.278 187.826 64.501 188.103 64.7939C188.382 65.0837 188.597 65.4352 188.747 65.8486C188.897 66.2588 188.972 66.721 188.972 67.2354V67.6602C188.972 68.1745 188.897 68.6383 188.747 69.0518C188.597 69.4619 188.381 69.8118 188.098 70.1016C187.818 70.3913 187.479 70.6143 187.082 70.7705C186.688 70.9235 186.244 71 185.749 71ZM184.768 63.8906V71H183.825V63.8906H184.768ZM195.104 70.2334V71H191.34V70.2334H195.104ZM191.53 63.8906V71H190.588V63.8906H191.53ZM194.606 66.9473V67.7139H191.34V66.9473H194.606ZM195.055 63.8906V64.6621H191.34V63.8906H195.055ZM199.103 64.5205L196.75 71H195.788L198.498 63.8906H199.118L199.103 64.5205ZM201.076 71L198.717 64.5205L198.703 63.8906H199.323L202.043 71H201.076ZM200.954 68.3682V69.1396H196.96V68.3682H200.954ZM205.187 63.8906V71H204.259V63.8906H205.187ZM207.472 63.8906V64.6621H201.979V63.8906H207.472ZM213.37 66.9473V67.7139H209.523V66.9473H213.37ZM209.669 63.8906V71H208.727V63.8906H209.669ZM214.191 63.8906V71H213.253V63.8906H214.191Z" fill="#6B6B6B"/>
<path d="M98.9268 19.4124L102.192 17.0402L102.339 17.2425L103.971 16.0564C104.585 15.6107 105.415 15.6107 106.029 16.0564L107.661 17.2424L107.808 17.0402L111.073 19.4124L110.926 19.6146L114.191 21.9869L114.338 21.7846L117.603 24.1568L117.456 24.3591L120.721 26.7313L120.868 26.529L124.133 28.9012L123.986 29.1035L127.251 31.4757L127.398 31.2734L130.663 33.6456L130.517 33.8479L133.782 36.2201L133.929 36.0178L137.194 38.39L137.047 38.5923L140.312 40.9645L140.459 40.7622L143.724 43.1344L143.577 43.3367L146.842 45.7089L146.989 45.5066L150.254 47.8788L150.107 48.0811L153.372 50.4533L153.519 50.251L156.784 52.6232L156.637 52.8255L159.902 55.1977L160.049 54.9955L163.314 57.3677L163.167 57.5699L166.432 59.9421L166.579 59.7399L169.844 62.1121L169.697 62.3143L172.962 64.6865L173.109 64.4843L176.374 66.8565L176.227 67.0587L177.86 68.2448C178.473 68.6905 178.73 69.4804 178.496 70.2014L177.872 72.1205L178.11 72.1978L176.863 76.0361L176.625 75.9588L175.378 79.7971L175.616 79.8744L174.368 83.7127L174.131 83.6354L172.883 87.4737L173.121 87.551L171.874 91.3893L171.636 91.312L170.389 95.1504L170.627 95.2276L169.38 99.0659L169.142 98.9887L167.895 102.827L168.133 102.904L166.886 106.743L166.648 106.665L165.401 110.504L165.638 110.581L164.391 114.419L164.153 114.342L162.906 118.18L163.144 118.257L161.897 122.096L161.659 122.019L160.412 125.857L160.65 125.934L159.403 129.772L159.165 129.695L157.918 133.533L158.156 133.611L156.908 137.449L156.671 137.372L155.424 141.21L155.661 141.287L154.414 145.126L154.176 145.048L152.929 148.887L153.167 148.964L151.92 152.802L151.682 152.725L151.059 154.644C150.824 155.365 150.152 155.853 149.394 155.853H147.376V156.103H143.34V155.853H139.305V156.103H135.269V155.853H131.233V156.103H127.197V155.853H123.161V156.103H119.125V155.853H115.09V156.103H111.054V155.853H107.018V156.103H102.982V155.853H98.9462V156.103H94.9104V155.853H90.8746V156.103H86.8387V155.853H82.8029V156.103H78.7671V155.853H74.7313V156.103H70.6954V155.853H66.6596V156.103H62.6238V155.853H60.6058C59.8477 155.853 59.1758 155.365 58.9415 154.644L58.3179 152.725L58.0802 152.802L56.833 148.964L57.0708 148.887L55.8236 145.048L55.5859 145.126L54.3387 141.287L54.5765 141.21L53.3294 137.372L53.0916 137.449L51.8445 133.611L52.0822 133.533L50.8351 129.695L50.5973 129.772L49.3502 125.934L49.5879 125.857L48.3408 122.019L48.103 122.096L46.8559 118.257L47.0936 118.18L45.8465 114.342L45.6087 114.419L44.3616 110.581L44.5994 110.504L43.3522 106.665L43.1145 106.743L41.8673 102.904L42.1051 102.827L40.8579 98.9887L40.6202 99.0659L39.373 95.2276L39.6108 95.1504L38.3637 91.3121L38.1259 91.3893L36.8788 87.551L37.1165 87.4738L35.8694 83.6355L35.6316 83.7127L34.3845 79.8744L34.6222 79.7971L33.3751 75.9588L33.1373 76.0361L31.8902 72.1978L32.128 72.1205L31.5044 70.2014C31.2701 69.4804 31.5268 68.6905 32.1401 68.2448L33.7726 67.0587L33.6257 66.8565L36.8907 64.4843L37.0377 64.6865L40.3027 62.3143L40.1558 62.1121L43.4208 59.7399L43.5678 59.9421L46.8329 57.5699L46.6859 57.3677L49.951 54.9955L50.0979 55.1977L53.363 52.8255L53.216 52.6233L56.4811 50.2511L56.628 50.4533L59.8931 48.0811L59.7461 47.8788L63.0112 45.5066L63.1581 45.7089L66.4232 43.3367L66.2763 43.1344L69.5413 40.7622L69.6883 40.9645L72.9533 38.5923L72.8064 38.39L76.0714 36.0178L76.2184 36.2201L79.4834 33.8479L79.3365 33.6456L82.6016 31.2734L82.7485 31.4757L86.0136 29.1035L85.8666 28.9012L89.1317 26.529L89.2786 26.7313L92.5437 24.3591L92.3967 24.1568L95.6618 21.7846L95.8087 21.9869L99.0738 19.6147L98.9268 19.4124Z" stroke="#868686" stroke-width="0.5" stroke-dasharray="4 4"/>
<path d="M98.8554 53.1938L102.168 50.787L102.315 50.9893L103.971 49.7858C104.585 49.3402 105.415 49.3402 106.029 49.7858L107.685 50.9893L107.832 50.787L111.145 53.1938L110.998 53.3961L114.31 55.8029L114.457 55.6006L117.77 58.0075L117.623 58.2097L120.936 60.6165L121.083 60.4143L124.395 62.8211L124.248 63.0233L127.561 65.4302L127.708 65.2279L131.021 67.6347L130.874 67.837L134.187 70.2438L134.334 70.0415L137.646 72.4484L137.499 72.6506L140.812 75.0574L140.959 74.8552L144.272 77.262L144.125 77.4642L145.781 78.6676C146.394 79.1133 146.651 79.9032 146.417 80.6242L145.784 82.5714L146.022 82.6486L144.757 86.5429L144.519 86.4657L143.253 90.36L143.491 90.4372L142.226 94.3316L141.988 94.2543L140.723 98.1486L140.96 98.2259L139.695 102.12L139.457 102.043L138.192 105.937L138.43 106.014L137.164 109.909L136.927 109.832L135.661 113.726L135.899 113.803L134.634 117.697L134.396 117.62L133.131 121.514L133.368 121.592L132.103 125.486L131.865 125.409L131.233 127.356C130.998 128.077 130.326 128.565 129.568 128.565H127.521V128.815H123.426V128.565H119.332V128.815H115.237V128.565H111.142V128.815H107.047V128.565H102.953V128.815H98.8579V128.565H94.7632V128.815H90.6685V128.565H86.5738V128.815H82.479V128.565H80.4317C79.6735 128.565 79.0016 128.077 78.7673 127.356L78.1347 125.409L77.8969 125.486L76.6316 121.592L76.8693 121.514L75.604 117.62L75.3662 117.697L74.1009 113.803L74.3386 113.726L73.0733 109.832L72.8355 109.909L71.5702 106.014L71.808 105.937L70.5426 102.043L70.3049 102.12L69.0395 98.2259L69.2773 98.1486L68.012 94.2543L67.7742 94.3316L66.5089 90.4372L66.7466 90.36L65.4813 86.4657L65.2435 86.5429L63.9782 82.6486L64.2159 82.5714L63.5833 80.6242C63.349 79.9032 63.6056 79.1133 64.219 78.6677L65.8753 77.4642L65.7284 77.262L69.0411 74.8552L69.188 75.0574L72.5007 72.6506L72.3538 72.4484L75.6665 70.0415L75.8134 70.2438L79.1261 67.837L78.9792 67.6347L82.2919 65.2279L82.4388 65.4302L85.7515 63.0233L85.6046 62.8211L88.9173 60.4143L89.0642 60.6165L92.3769 58.2097L92.23 58.0075L95.5427 55.6006L95.6896 55.8029L99.0023 53.3961L98.8554 53.1938Z" stroke="#868686" stroke-width="0.5" stroke-dasharray="4 4"/>
<path d="M105 16.4053V95.108M105 95.108L61.4325 154.838M105 95.108L149.973 154.838M105 95.108L31.9189 69.8107M105 95.108L177.378 69.8107" stroke="#868686" stroke-width="0.5" stroke-dasharray="4 4"/>
<path d="M102.189 42.4053L74.0811 81.7566V140.081L121.865 120.405L137.324 84.5674L102.189 42.4053Z" fill="url(#paint0_linear_45_189)" stroke="url(#paint1_linear_45_189)"/>
<circle opacity="0.98" cx="102.189" cy="42.4051" r="3.51351" fill="url(#paint2_linear_45_189)"/>
<circle opacity="0.98" cx="74.0811" cy="81.7567" r="3.51351" fill="url(#paint3_linear_45_189)"/>
<circle opacity="0.98" cx="74.0811" cy="139.379" r="3.51351" fill="url(#paint4_linear_45_189)"/>
<circle opacity="0.98" cx="121.865" cy="119.703" r="3.51351" fill="url(#paint5_linear_45_189)"/>
<circle opacity="0.98" cx="137.324" cy="84.5672" r="3.51351" fill="url(#paint6_linear_45_189)"/>
<defs>
<linearGradient id="paint0_linear_45_189" x1="75.3544" y1="45.3552" x2="160.37" y2="101.968" gradientUnits="userSpaceOnUse">
<stop offset="0.0001" stop-color="#2C98EB"/>
<stop offset="1" stop-color="#1A3648"/>
</linearGradient>
<linearGradient id="paint1_linear_45_189" x1="74.0811" y1="91.2431" x2="137.324" y2="91.2431" gradientUnits="userSpaceOnUse">
<stop stop-color="#9F9F9F"/>
<stop offset="1" stop-color="#8E54E9"/>
</linearGradient>
<linearGradient id="paint2_linear_45_189" x1="98.8173" y1="39.1038" x2="105.443" y2="45.9186" gradientUnits="userSpaceOnUse">
<stop offset="0.0001" stop-color="#2C98EB"/>
<stop offset="1" stop-color="#1A3648"/>
</linearGradient>
<linearGradient id="paint3_linear_45_189" x1="70.7091" y1="78.4554" x2="77.3353" y2="85.2702" gradientUnits="userSpaceOnUse">
<stop offset="0.0001" stop-color="#2C98EB"/>
<stop offset="1" stop-color="#1A3648"/>
</linearGradient>
<linearGradient id="paint4_linear_45_189" x1="70.7091" y1="136.077" x2="77.3353" y2="142.892" gradientUnits="userSpaceOnUse">
<stop offset="0.0001" stop-color="#2C98EB"/>
<stop offset="1" stop-color="#1A3648"/>
</linearGradient>
<linearGradient id="paint5_linear_45_189" x1="118.493" y1="116.402" x2="125.119" y2="123.216" gradientUnits="userSpaceOnUse">
<stop offset="0.0001" stop-color="#2C98EB"/>
<stop offset="1" stop-color="#1A3648"/>
</linearGradient>
<linearGradient id="paint6_linear_45_189" x1="133.952" y1="81.2659" x2="140.578" y2="88.0807" gradientUnits="userSpaceOnUse">
<stop offset="0.0001" stop-color="#2C98EB"/>
<stop offset="1" stop-color="#1A3648"/>
</linearGradient>
</defs>
</svg>
