<svg width="14" height="16" viewBox="0 0 14 16" fill="none" xmlns="http://www.w3.org/2000/svg">
<path d="M4.75 8.50195C5.16421 8.50195 5.5 8.16617 5.5 7.75195C5.5 7.33774 5.16421 7.00195 4.75 7.00195C4.33579 7.00195 4 7.33774 4 7.75195C4 8.16617 4.33579 8.50195 4.75 8.50195Z" stroke="white" stroke-linecap="round" stroke-linejoin="round"/>
<path d="M9.25 8.50195C9.66421 8.50195 10 8.16617 10 7.75195C10 7.33774 9.66421 7.00195 9.25 7.00195C8.83579 7.00195 8.5 7.33774 8.5 7.75195C8.5 8.16617 8.83579 8.50195 9.25 8.50195Z" stroke="white" stroke-linecap="round" stroke-linejoin="round"/>
<path d="M4 13.752V15.252H10V13.752M7.375 11.502L7 10.752L6.625 11.502H7.375Z" stroke="white" stroke-linecap="round" stroke-linejoin="round"/>
<path d="M10 13.7516C10.2825 13.7514 10.5592 13.6714 10.7983 13.5209C11.0374 13.3703 11.2291 13.1554 11.3514 12.9007C11.4736 12.646 11.5214 12.3619 11.4894 12.0812C11.4573 11.8005 11.3466 11.5346 11.17 11.3141C12.0295 10.4833 12.6212 9.41471 12.8693 8.24538C13.1174 7.07605 13.0106 5.85926 12.5626 4.75104C12.1145 3.64282 11.3457 2.6937 10.3546 2.02538C9.36349 1.35705 8.19537 1 7 1C5.80464 1 4.63652 1.35705 3.64544 2.02538C2.65435 2.6937 1.88549 3.64282 1.43743 4.75104C0.989378 5.85926 0.882559 7.07605 1.13067 8.24538C1.37879 9.41471 1.97052 10.4833 2.83 11.3141C2.65343 11.5346 2.54273 11.8005 2.51064 12.0812C2.47856 12.3619 2.5264 12.646 2.64865 12.9007C2.77091 13.1554 2.96261 13.3703 3.20168 13.5209C3.44076 13.6714 3.71748 13.7514 4 13.7516" stroke="white" stroke-linecap="round" stroke-linejoin="round"/>
</svg>
