<svg width="23" height="22" viewBox="0 0 23 22" fill="none" xmlns="http://www.w3.org/2000/svg">
<path d="M15.914 6.336C14.627 5.049 12.944 4.4 11.25 4.4V11L6.586 15.664C9.16 18.238 13.34 18.238 15.925 15.664C18.499 13.09 18.499 8.91 15.914 6.336ZM11.25 0C5.178 0 0.25 4.928 0.25 11C0.25 17.072 5.178 22 11.25 22C17.322 22 22.25 17.072 22.25 11C22.25 4.928 17.322 0 11.25 0ZM11.25 19.8C6.388 19.8 2.45 15.862 2.45 11C2.45 6.138 6.388 2.2 11.25 2.2C16.112 2.2 20.05 6.138 20.05 11C20.05 15.862 16.112 19.8 11.25 19.8Z" fill="#9E9E9E"/>
</svg>
