<svg width="34" height="80" viewBox="0 0 34 80" fill="none" xmlns="http://www.w3.org/2000/svg">
<path d="M16.665 12.306C20.0632 12.306 22.818 9.55121 22.818 6.153C22.818 2.75479 20.0632 0 16.665 0C13.2668 0 10.512 2.75479 10.512 6.153C10.512 9.55121 13.2668 12.306 16.665 12.306Z" fill="white" fill-opacity="0.5"/>
<path d="M29.2849 40.8324L24.1699 28.0384L22.8179 34.8694H10.5119L9.1489 28.0294L4.0319 40.8294C3.8916 41.3545 3.54844 41.8024 3.07791 42.0745C2.60738 42.3466 2.04802 42.4207 1.5229 42.2804C0.997767 42.1401 0.54988 41.7969 0.277765 41.3264C0.00564939 40.8558 -0.0684039 40.2965 0.0718956 39.7714L6.4409 15.9994H6.4489C6.54459 15.5364 6.79695 15.1206 7.16346 14.8221C7.52996 14.5235 7.98818 14.3605 8.4609 14.3604H12.5609L16.6699 18.4604L20.7699 14.3604H24.8809C25.3651 14.3614 25.8332 14.5339 26.2023 14.8473C26.5714 15.1607 26.8175 15.5947 26.8969 16.0724L33.2489 39.7724C33.3186 40.0323 33.3363 40.3034 33.3012 40.5703C33.2661 40.8371 33.1788 41.0944 33.0442 41.3274C32.9097 41.5605 32.7305 41.7648 32.517 41.9287C32.3035 42.0925 32.0598 42.2127 31.7999 42.2824C31.5399 42.352 31.2688 42.3698 31.002 42.3347C30.7352 42.2996 30.4779 42.2122 30.2448 42.0777C30.0117 41.9431 29.8074 41.764 29.6436 41.5505C29.4797 41.337 29.3596 41.0933 29.2899 40.8334L29.2849 40.8324Z" fill="white"/>
<path d="M10.8779 79.9996H4.35791L10.2199 38.9746H23.1129L28.9699 79.9956H22.4619L16.6639 47.1746L10.8779 79.9986V79.9996Z" fill="white" fill-opacity="0.5"/>
</svg>
