<svg width="110" height="230" viewBox="0 0 110 230" fill="none" xmlns="http://www.w3.org/2000/svg">
<mask id="mask0_378_569" style="mask-type:luminance" maskUnits="userSpaceOnUse" x="0" y="0" width="110" height="230">
<path d="M109.049 0H0V230H109.049V0Z" fill="white"/>
</mask>
<g mask="url(#mask0_378_569)">
<path d="M56.7416 114.719L57.9856 113.86L60.5598 105.666H61.4123L61.9113 106.117V108.031L65.4506 108.803L66.4158 112.595V113.002L62.7908 117.55L65.1074 147.817L68.0676 149.147V150.005L63.9705 150.928L64.6997 161.203L66.9521 161.953L67.3167 164.098L66.2012 164.935L66.1584 168.764L67.1881 176.711L68.0676 180.54L69.6334 181.474L71.4352 202.581L70.5989 202.71L70.7917 209.306L71.6605 209.724V216.159L72.7224 219.12H70.2126L70.2447 229.127H85.3354V219.377L81.8389 218.734L81.9892 209.038L83.319 208.587L82.8794 201.905L81.8927 201.97L80.8737 176.926H81.41L82.3323 176.004V174.867L82.5469 174.609L82.2681 165.085L81.6032 163.755L78.2353 161.31L82.4612 160.666L81.7317 149.716L81.3136 149.104H79.8011L79.0719 136.727L81.2383 136.491L81.9035 135.204L80.3374 113.389L76.8409 109.914L76.8088 108.779L79.2865 107.919L78.1924 93.9864L77.5811 93.4715H75.4894L75.1998 90.64H70.5664L72.1432 87.5831L71.2102 84.8482L69.0542 84.2369H67.6384L68.9899 74.5517L70.3093 76.4502H71.7894L77.2915 64.8989L76.326 56.8869L74.5885 49.6151L77.0341 48.6821L77.7097 50.0336L79.2219 50.7092L80.3159 53.8303L81.2169 54.4417L87.7488 72.8466L88.6175 74.005L86.4294 75.0344L89.261 84.4944L89.9687 84.6229L92.1568 91.5409L92.3821 95.2733L95.3423 104.218L95.8893 105.151L94.0229 106.482L93.7012 107.822L93.122 108.24L91.7708 110.943L92.4609 111.802L91.0306 112.455L90.5158 116.059L90.8699 116.606L94.1518 115.93L94.6988 113.099L94.3128 112.738L94.6988 112.198L94.57 111.667L95.8088 111.362L96.5971 109.527L97.2889 111.715L98.769 112.842L100.861 118.006L100.619 121.706L100.941 122.494L100.748 123.009L100.024 123.46L98.9783 125.648L99.0264 126.549L98.592 126.983L97.7074 127.047L95.841 129.059L97.2889 130.587L98.5599 130.667L97.5463 131.552L98.9459 132.887L99.9273 132.855L101.874 130.941L101.576 130.427L101.951 129.841L102.952 129.943L104.882 126.517L105.542 124.779L106.186 124.683L106.508 118.279L108.181 118.601L107.119 109.045L105.864 104.894L103.225 103.8L104.705 103.414L105.993 101.741L99.7825 81.7914L102.325 80.5044L99.0748 70.5942L96.9512 70.7228L92.1595 56.7039L92.46 56.3358L90.6768 51.1919L91.1581 50.0993L90.269 47.1913L91.4812 46.4511L91.4705 45.1427L86.5797 31.5215L84.7562 31.3283L83.6838 28.5506L73.1915 32.2535L74.2668 35.5864L72.8081 36.9379L72.3793 35.1144L63.6271 31.425H59.0368L58.4362 29.6015L59.9592 29.5587L63.9491 26.1694V18.5544L65.1503 17.8465V13.1702H64.378V9.56381H64.6864V6.41858H64.3647V3.91418L60.6026 0.868164L48.4467 0.87216L44.6849 3.91818V6.42258H44.3629V9.5678H44.6713V13.1742H43.8993V17.8505L45.1005 18.5584V26.1734L49.0904 29.5627L50.6134 29.6056L50.0128 31.4288H45.4222L36.6703 35.1184L36.2412 36.9417L34.7825 35.5905L35.8578 32.2576L25.3656 28.5544L24.2931 31.3324L22.4698 31.5255L17.579 45.1468L17.5683 46.4552L18.7802 47.1953L17.8914 50.1031L18.3727 51.196L16.5553 56.4381L16.89 56.708L12.0983 70.7268L9.97465 70.5983L6.72485 80.5085L9.26678 81.7954L3.05674 101.745L4.34381 103.418L5.82392 103.804L3.18547 104.898L1.93059 109.049L0.868774 118.605L2.54195 118.283L2.86371 124.686L3.50723 124.783L4.16685 126.521L6.0974 129.947L7.0981 129.845L7.47369 130.431L7.17533 130.945L9.12199 132.859L10.1034 132.891L11.503 131.556L10.5212 130.622L11.7604 130.591L13.2084 129.062L11.3422 127.051L10.4573 126.987L10.0229 126.553L10.0712 125.652L9.02547 123.464L8.3015 123.013L8.10844 122.499L8.43019 121.71L8.18888 118.01L10.2803 112.845L11.7604 111.72L12.4522 109.531L13.2405 111.365L14.4793 111.671L14.3506 112.202L14.7366 112.742L14.3506 113.103L14.8976 115.934L18.1796 116.61L18.5335 116.063L18.0187 112.459L16.5885 111.806L17.2787 110.947L15.9273 108.244L15.3481 107.826L15.0263 106.486L13.1601 105.155L13.7071 104.222L16.6673 95.2774L16.8925 91.5449L19.0805 84.627L19.7884 84.4984L22.6199 75.0385L20.4319 74.0087L21.3007 72.8504L27.8325 54.4457L28.7334 53.8344L29.8274 50.7132L31.3396 50.0376L32.0155 48.6861L34.4608 49.6192L32.7233 56.891L31.7581 64.903L37.2602 76.4543H38.7403L40.0594 74.5558L41.4109 84.241H39.9951L37.8394 84.8523L36.9061 87.5872L38.4829 90.644H33.8495L33.5599 93.4756H31.4685L30.8572 93.9902L29.7631 107.922L32.2405 108.783L32.2084 109.917L28.7119 113.392L27.1461 135.208L27.811 136.495L29.9777 136.731L29.2482 149.108H27.736L27.3177 149.72L26.5883 160.67L30.814 161.314L27.4464 163.759L26.7814 165.089L26.5025 174.613L26.7171 174.871V176.008L27.6394 176.93H28.1757L27.1568 201.974L26.1701 201.91L25.7303 208.591L27.0602 209.042L27.2104 218.738L23.7139 219.381V229.131H38.8046L38.8367 219.124H36.3269L37.3888 216.164V209.728L38.2576 209.31L38.4507 202.714L37.6141 202.585L39.4159 181.477L40.982 180.544L41.8615 176.715L42.891 168.768L42.8481 164.939L41.7326 164.102L42.0972 161.957L44.3496 161.206L45.0791 150.932L40.982 150.009V149.151L43.9422 147.821L46.2588 117.554L42.6335 113.006V112.599L43.599 108.807L47.1383 108.035V106.121L47.637 105.67H48.4895L51.0637 113.865L52.308 114.723L56.7416 114.719Z" fill="#313448"/>
<path d="M46.585 5.44238V17.9375L49.1698 20.9084V29.8076" fill="#9F8D8D"/>
<path d="M46.585 5.44238V17.9375L49.1698 20.9084V29.8076" stroke="#8D8F9F" stroke-width="0.666667" stroke-linejoin="round"/>
<path d="M49.1698 20.9084L44.8831 18.5703" stroke="#8D8F9F" stroke-width="0.666667" stroke-linejoin="round"/>
<path d="M44.5579 12.9375V18.5095" stroke="#8D8F9F" stroke-width="0.666667" stroke-linejoin="round"/>
<path d="M45.4052 31.4404L45.684 34.3792L47.8774 38.2724" stroke="#8D8F9F" stroke-width="0.666667" stroke-linejoin="round"/>
<path d="M49.7887 31.1483L50.3482 31.9365L50.9288 32.9845L53.7497 33.6572V32.1479L52.3544 30.8494L50.4753 29.7119" stroke="#8D8F9F" stroke-width="0.666667" stroke-linejoin="round"/>
<path d="M49.6038 35.29L48.5853 36.9534V38.2728" stroke="#8D8F9F" stroke-width="0.666667" stroke-linejoin="round"/>
<path d="M52.6282 36.4795L54.0107 37.7065V38.3053" stroke="#8D8F9F" stroke-width="0.666667" stroke-linejoin="round"/>
<path d="M34.303 49.6655L35.9963 50.2881L38.434 40.6857L36.1969 36.6992L32.0298 48.916" stroke="#8D8F9F" stroke-width="0.666667" stroke-linejoin="round"/>
<path d="M41.8443 71.6071L41.0077 70.867L40.5573 68.2928L35.8594 63.1446L34.4436 58.6079L34.5725 55.8085L35.9958 50.2881" stroke="#8D8F9F" stroke-width="0.666667" stroke-linejoin="round"/>
<path d="M40.5578 68.2927L31.7413 64.9141" stroke="#8D8F9F" stroke-width="0.666667" stroke-linejoin="round"/>
<path d="M34.4444 58.6084L31.6345 64.8658" stroke="#8D8F9F" stroke-width="0.666667" stroke-linejoin="round"/>
<path d="M34.5728 55.8086L32.506 56.9745" stroke="#8D8F9F" stroke-width="0.666667" stroke-linejoin="round"/>
<path d="M34.8656 35.6016L29.8795 50.819" stroke="#8D8F9F" stroke-width="0.666667" stroke-linejoin="round"/>
<path d="M24.2215 31.2168L18.6569 47.2286" stroke="#8D8F9F" stroke-width="0.666667" stroke-linejoin="round"/>
<path d="M17.6625 50.9697L28.1276 54.5649" stroke="#8D8F9F" stroke-width="0.666667" stroke-linejoin="round"/>
<path d="M16.2444 56.4309L18.592 59.133L14.0444 72.3683L19.5359 74.5133L20.4153 74.0201L15.0312 71.9823L19.5788 58.8542L16.2604 56.375" stroke="#8D8F9F" stroke-width="0.666667" stroke-linejoin="round"/>
<path d="M14.1542 64.6758L16.3613 65.6265L16.9453 66.4576L21.666 68.1195L23.9048 65.8324" stroke="#8D8F9F" stroke-width="0.666667" stroke-linejoin="round"/>
<path d="M26.5556 54.0244L19.7106 73.7537" stroke="#8D8F9F" stroke-width="0.666667" stroke-linejoin="round"/>
<path d="M17.8746 50.1152L28.7166 53.8463" stroke="#8D8F9F" stroke-width="0.666667" stroke-linejoin="round"/>
<path d="M3.04004 101.756L5.50691 100.619L13.0489 103.029L13.8158 104.578" stroke="#8D8F9F" stroke-width="0.666667" stroke-linejoin="round"/>
<path d="M17.0414 91.3594L13.0488 103.029" stroke="#8D8F9F" stroke-width="0.666667" stroke-linejoin="round"/>
<path d="M6.76743 78.9619L11.6309 81.1309L5.50671 100.619" stroke="#8D8F9F" stroke-width="0.666667" stroke-linejoin="round"/>
<path d="M12.0316 70.5928L10.9828 73.6569" stroke="#8D8F9F" stroke-width="0.666667" stroke-linejoin="round"/>
<path d="M14.5451 72.5645L11.6311 81.1313L8.71704 82.007" stroke="#8D8F9F" stroke-width="0.666667" stroke-linejoin="round"/>
<path d="M19.5356 74.5137L16.6826 83.0938L11.631 81.131" stroke="#8D8F9F" stroke-width="0.666667" stroke-linejoin="round"/>
<path d="M17.0415 91.0343L15.235 87.8251L15.9251 82.8008" stroke="#8D8F9F" stroke-width="0.666667" stroke-linejoin="round"/>
<path d="M17.3181 81.1826L20.6445 81.593" stroke="#8D8F9F" stroke-width="0.666667" stroke-linejoin="round"/>
<path d="M9.50537 87.8955L17.0768 91.0335" stroke="#8D8F9F" stroke-width="0.666667" stroke-linejoin="round"/>
<path d="M10.1377 85.8828L15.2347 87.8236" stroke="#8D8F9F" stroke-width="0.666667" stroke-linejoin="round"/>
<path d="M44.1185 35.0654L39.5923 39.7425L37.8154 36.9532L36.6536 35.13" stroke="#8D8F9F" stroke-width="0.666667" stroke-linejoin="round"/>
<path d="M37.8147 36.9532L44.1181 35.0654" stroke="#8D8F9F" stroke-width="0.666667" stroke-linejoin="round"/>
<path d="M43.5822 58.0938L35.8601 63.1453L31.7413 64.915" stroke="#8D8F9F" stroke-width="0.666667" stroke-linejoin="round"/>
<path d="M39.5919 39.7427L35.169 55.7418L34.4436 58.6078L45.8021 41.6832L39.5919 39.7427ZM39.5919 39.7427L38.4335 40.6856L35.5597 38.7998" stroke="#8D8F9F" stroke-width="0.666667" stroke-linejoin="round"/>
<path d="M40.8612 73.1387L44.6976 77.1859V78.8041L49.4167 81.5931" stroke="#8D8F9F" stroke-width="0.666667" stroke-linejoin="round"/>
<path d="M40.2117 74.1494L43.5822 77.3658V79.8983L49.0441 83.0945L49.4168 89.1222L48.7733 89.8789L44.3113 87.2772L40.9475 83.7897" stroke="#8D8F9F" stroke-width="0.666667" stroke-linejoin="round"/>
<path d="M43.5822 70.4072L48.1727 76.2082V80.8575" stroke="#8D8F9F" stroke-width="0.666667" stroke-linejoin="round"/>
<path d="M44.4903 87.3805L43.8666 80.0635" stroke="#8D8F9F" stroke-width="0.666667" stroke-linejoin="round"/>
<path d="M45.2121 87.8027L44.4907 88.7578L45.8776 90.1209L46.757 90.2593L47.3791 91.3748L48.666 91.5462L51.6264 93.82" stroke="#8D8F9F" stroke-width="0.666667" stroke-linejoin="round"/>
<path d="M49.2582 70.2H53.0303L51.1538 68.4307L49.2582 70.2Z" stroke="#8D8F9F" stroke-width="1.33333" stroke-linecap="round" stroke-linejoin="round"/>
<path d="M46.7568 90.2588V88.7031" stroke="#8D8F9F" stroke-width="0.666667" stroke-linejoin="round"/>
<path d="M45.8134 90.0908L47.2178 94.3243H49.1807L50.9182 95.8686L51.5689 95.4844" stroke="#8D8F9F" stroke-width="0.666667" stroke-linejoin="round"/>
<path d="M46.0686 90.8604L39.0771 91.0338V93.8205C39.0771 93.8205 42.9706 95.3061 43.4534 95.483C43.9358 95.66 44.2468 96.0836 44.2897 97.0436H46.4778L48.3118 94.3247" stroke="#8D8F9F" stroke-width="0.666667" stroke-linejoin="round"/>
<path d="M47.2179 94.3242V95.9459" stroke="#8D8F9F" stroke-width="0.666667" stroke-linejoin="round"/>
<path d="M46.4781 97.043L48.4517 99.8048" stroke="#8D8F9F" stroke-width="0.666667" stroke-linejoin="round"/>
<path d="M48.4045 105.745L46.4781 97.043" stroke="#8D8F9F" stroke-width="0.666667" stroke-linejoin="round"/>
<path d="M45.77 97.043L47.2359 106.133" stroke="#8D8F9F" stroke-width="0.666667" stroke-linejoin="round"/>
<path d="M43.6813 108.997L44.2903 97.043" stroke="#8D8F9F" stroke-width="0.666667" stroke-linejoin="round"/>
<path d="M33.4712 93.375L32.1388 108.827" stroke="#8D8F9F" stroke-width="0.666667" stroke-linejoin="round"/>
<path d="M42.7304 112.989C42.7304 112.989 41.1365 132.196 41.0079 133.869C40.8791 135.542 40.8791 137.087 41.0079 139.403C41.1365 141.72 41.3832 142.02 40.1499 158.666L31.2639 158.237L32.7223 136.876L29.6249 136.831" stroke="#8D8F9F" stroke-width="0.666667" stroke-linejoin="round"/>
<path d="M29.1815 148.194L29.0049 153.063" stroke="#8D8F9F" stroke-width="0.666667" stroke-linejoin="round"/>
<path d="M27.1295 135.22L31.1624 134.877L32.7224 136.876L40.9122 136.272" stroke="#8D8F9F" stroke-width="0.666667" stroke-linejoin="round"/>
<path d="M31.1621 134.877L32.9422 108.795L42.9709 109.029L42.8756 111.596L32.7068 111.346" stroke="#8D8F9F" stroke-width="0.666667" stroke-linejoin="round"/>
<path d="M28.165 116.249L32.5906 113.955" stroke="#8D8F9F" stroke-width="0.666667" stroke-linejoin="round"/>
<path d="M42.5105 115.642L46.3603 120.639" stroke="#8D8F9F" stroke-width="0.666667" stroke-linejoin="round"/>
<path d="M32.6396 158.271L32.4473 160.639" stroke="#8D8F9F" stroke-width="0.666667" stroke-linejoin="round"/>
<path d="M39.0694 158.529L38.8771 161.046" stroke="#8D8F9F" stroke-width="0.666667" stroke-linejoin="round"/>
<path d="M42.1795 162.053L39.8746 162.011" stroke="#8D8F9F" stroke-width="0.666667" stroke-linejoin="round"/>
<path d="M39.3041 167.599L41.6089 169.262L42.8674 168.168L39.5279 165.272" stroke="#8D8F9F" stroke-width="0.666667" stroke-linejoin="round"/>
<path d="M38.2622 177.972L40.9863 176.213L42.0639 176.859" stroke="#8D8F9F" stroke-width="0.666667" stroke-linejoin="round"/>
<path d="M40.9867 176.212L41.6087 169.262" stroke="#8D8F9F" stroke-width="0.666667" stroke-linejoin="round"/>
<path d="M39.8928 160.639H44.6959" stroke="#8D8F9F" stroke-width="0.666667" stroke-linejoin="round"/>
<path d="M40.15 158.665L39.5276 165.272L30.7057 165.05L31.2637 158.236" stroke="#8D8F9F" stroke-width="0.666667" stroke-linejoin="round"/>
<path d="M37.8438 182.534L40.3996 181.002" stroke="#8D8F9F" stroke-width="0.666667" stroke-linejoin="round"/>
<path d="M30.2288 177.435H29.7782L26.4095 174.683" stroke="#8D8F9F" stroke-width="0.666667" stroke-linejoin="round"/>
<path d="M28.0752 177.104L28.117 176.06" stroke="#8D8F9F" stroke-width="0.666667" stroke-linejoin="round"/>
<path d="M27.0798 201.573L27.0288 203.225" stroke="#8D8F9F" stroke-width="0.666667" stroke-linejoin="round"/>
<path d="M37.7435 202.189L37.6066 203.837" stroke="#8D8F9F" stroke-width="0.666667" stroke-linejoin="round"/>
<path d="M26.6934 209.334L28.9528 207.263L35.2484 207.183L37.4354 209.817" stroke="#8D8F9F" stroke-width="0.666667" stroke-linejoin="round"/>
<path d="M35.2001 207.278L34.5511 216.674L35.8598 218.084V219.062" stroke="#8D8F9F" stroke-width="0.666667" stroke-linejoin="round"/>
<path d="M37.4351 209.774L35.8595 218.084" stroke="#8D8F9F" stroke-width="0.666667" stroke-linejoin="round"/>
<path d="M27.0051 218.234L28.3308 216.786L28.9529 207.262" stroke="#8D8F9F" stroke-width="0.666667" stroke-linejoin="round"/>
<path d="M28.3303 216.786L34.5512 216.674" stroke="#8D8F9F" stroke-width="0.666667" stroke-linejoin="round"/>
<path d="M26.9412 218.64H28.3307L28.8295 217.607H34.058L34.943 219.096L36.7126 219.031" stroke="#8D8F9F" stroke-width="0.666667" stroke-linejoin="round"/>
<path d="M29.4582 205.752L29.3444 207.258" stroke="#8D8F9F" stroke-width="0.666667" stroke-linejoin="round"/>
<path d="M35.2053 206.011L35.0553 207.182" stroke="#8D8F9F" stroke-width="0.666667" stroke-linejoin="round"/>
<path d="M23.6969 225.142H38.8005" stroke="#8D8F9F" stroke-width="0.666667" stroke-linejoin="round"/>
<path d="M28.8984 217.607L27.9445 224.413" stroke="#8D8F9F" stroke-width="0.666667" stroke-linejoin="round"/>
<path d="M34.0579 217.607L34.2296 224.413" stroke="#8D8F9F" stroke-width="0.666667" stroke-linejoin="round"/>
<path d="M34.9426 219.096L34.2294 224.413" stroke="#8D8F9F" stroke-width="0.666667" stroke-linejoin="round"/>
<path d="M28.0068 218.64L27.9445 224.412" stroke="#8D8F9F" stroke-width="0.666667" stroke-linejoin="round"/>
<path d="M31.5022 153.772L40.4718 154.225" stroke="#8D8F9F" stroke-width="0.666667" stroke-linejoin="round"/>
<path d="M47.8776 38.2725L45.8021 41.6832" stroke="#8D8F9F" stroke-width="0.666667" stroke-linejoin="round"/>
<path d="M45.6846 34.3787L48.4947 33.2846L49.7602 32.9629" stroke="#8D8F9F" stroke-width="0.666667" stroke-linejoin="round"/>
<path d="M2.12891 118.564L4.47697 116.971H5.64331L6.18652 116.172L8.30287 118.143" stroke="#8D8F9F" stroke-width="0.666667" stroke-linejoin="round"/>
<path d="M5.7323 103.928L6.63407 102.575L13.3765 105.167" stroke="#8D8F9F" stroke-width="0.666667" stroke-linejoin="round"/>
<path d="M9.87381 103.821L8.61515 104.904L5.37378 103.807" stroke="#8D8F9F" stroke-width="0.666667" stroke-linejoin="round"/>
<path d="M8.61523 104.904L9.59783 107.601L9.18077 108.407L10.6523 109.338L12.4174 109.64" stroke="#8D8F9F" stroke-width="0.666667" stroke-linejoin="round"/>
<path d="M9.1809 108.407L8.69324 109.165L11.232 110.729L10.3319 112.951" stroke="#8D8F9F" stroke-width="0.666667" stroke-linejoin="round"/>
<path d="M8.01335 104.677L8.59142 107.097L7.17746 109.039L6.31469 111.938L4.8288 115.965L4.47729 116.971" stroke="#8D8F9F" stroke-width="0.666667" stroke-linejoin="round"/>
<path d="M9.12963 116.478L4.82849 115.964" stroke="#8D8F9F" stroke-width="0.666667" stroke-linejoin="round"/>
<path d="M4.82458 104.116L4.99631 108.679L6.21292 112.041" stroke="#8D8F9F" stroke-width="0.666667" stroke-linejoin="round"/>
<path d="M0.790161 116.836L6.31439 111.938" stroke="#8D8F9F" stroke-width="0.666667" stroke-linejoin="round"/>
<path d="M10.2516 113.072L6.3606 111.781" stroke="#8D8F9F" stroke-width="0.666667" stroke-linejoin="round"/>
<path d="M4.63672 116.97L5.51454 123.345L6.82037 123.225L6.90548 123.92L6.15456 124.735L7.73631 127.419H8.3754L9.09435 128.088L8.82275 128.793L10.7601 130.707" stroke="#8D8F9F" stroke-width="0.666667" stroke-linejoin="round"/>
<path d="M5.64355 116.97L6.39848 122.26L8.67303 121.651" stroke="#8D8F9F" stroke-width="0.666667" stroke-linejoin="round"/>
<path d="M10.3805 126.328L8.37537 127.42" stroke="#8D8F9F" stroke-width="0.666667" stroke-linejoin="round"/>
<path d="M8.63255 122.799L6.9054 123.921" stroke="#8D8F9F" stroke-width="0.666667" stroke-linejoin="round"/>
<path d="M6.82068 123.226L8.51351 122.359" stroke="#8D8F9F" stroke-width="0.666667" stroke-linejoin="round"/>
<path d="M9.64113 129.593H8.55092L7.30469 130.414L10.1966 133.01" stroke="#8D8F9F" stroke-width="0.666667" stroke-linejoin="round"/>
<path d="M8.59893 129.557L8.05969 128.742" stroke="#8D8F9F" stroke-width="0.666667" stroke-linejoin="round"/>
<path d="M3.19666 117.84L3.43791 124.864" stroke="#8D8F9F" stroke-width="0.666667" stroke-linejoin="round"/>
<path d="M6.15452 124.736L4.70859 125.647L3.41443 124.85" stroke="#8D8F9F" stroke-width="0.666667" stroke-linejoin="round"/>
<path d="M4.70866 125.646L4.61194 127.678" stroke="#8D8F9F" stroke-width="0.666667" stroke-linejoin="round"/>
<path d="M54.506 11.1765C55.7092 11.1765 56.6846 12.1518 56.6846 13.355C56.6846 14.5582 55.7092 15.5336 54.506 15.5336C53.3028 15.5336 52.3275 14.5582 52.3275 13.355C52.3275 12.1518 53.3028 11.1765 54.506 11.1765ZM54.506 10.4814C52.9214 10.4814 51.6324 11.7705 51.6324 13.355C51.6324 14.9395 52.9214 16.2286 54.506 16.2286C56.0903 16.2286 57.3796 14.9395 57.3796 13.355C57.3796 11.7705 56.0903 10.4814 54.506 10.4814Z" fill="#9F8D8D"/>
<path d="M54.5057 14.8106C55.3102 14.8106 55.9623 14.1585 55.9623 13.3541C55.9623 12.5496 55.3102 11.8975 54.5057 11.8975C53.7012 11.8975 53.0491 12.5496 53.0491 13.3541C53.0491 14.1585 53.7012 14.8106 54.5057 14.8106Z" fill="#9F8D8D" stroke="#8D8F9F" stroke-width="0.666667" stroke-linejoin="round"/>
<path d="M6.15464 112.08L1.5752 108.897" stroke="#8D8F9F" stroke-width="0.666667" stroke-linejoin="round"/>
<path d="M17.0149 116.357L16.7838 111.723L14.6383 112.692" stroke="#8D8F9F" stroke-width="0.666667" stroke-linejoin="round"/>
<path d="M14.1677 111.826L16.0802 110.931L17.2617 110.958" stroke="#8D8F9F" stroke-width="0.666667" stroke-linejoin="round"/>
<path d="M14.1111 107.704L16.0803 110.932" stroke="#8D8F9F" stroke-width="0.666667" stroke-linejoin="round"/>
<path d="M12.4425 109.688L14.0961 107.612L15.6289 107.754" stroke="#8D8F9F" stroke-width="0.666667" stroke-linejoin="round"/>
<path d="M11.5015 109.436L13.4683 107.224L15.0096 106.498" stroke="#8D8F9F" stroke-width="0.666667" stroke-linejoin="round"/>
<path d="M26.7421 165.874L30.7011 165.015L28.9526 205.728L35.6023 206.029L39.528 165.272" stroke="#8D8F9F" stroke-width="0.666667" stroke-linejoin="round"/>
<path d="M30.9946 161.967L39.8149 162.22" stroke="#8D8F9F" stroke-width="0.666667" stroke-linejoin="round"/>
<path d="M64.3478 3.92578L62.4307 5.43806L59.9852 6.1245L49.0307 6.12849L46.5852 5.44206L44.6681 3.92978" fill="#9F8D8D"/>
<path d="M64.3478 3.92578L62.4307 5.43806L59.9852 6.1245L49.0307 6.12849L46.5852 5.44206L44.6681 3.92978" stroke="#8D8F9F" stroke-width="0.666667" stroke-linejoin="round"/>
<path d="M63.6105 31.4365L64.8974 35.0619L61.1383 38.2687L47.8775 38.2728L44.1184 35.0656L45.4053 31.4406" stroke="#8D8F9F" stroke-width="0.666667" stroke-linejoin="round"/>
<path d="M60.1257 44.5173L54.5098 48.3783L48.8904 44.5213L60.1257 44.5173ZM60.1257 43.8223H60.1254L48.8901 43.8263C48.5857 43.8263 48.3167 44.0247 48.2266 44.3154C48.1363 44.6065 48.246 44.9221 48.4971 45.0944L54.1165 48.9514C54.235 49.0328 54.3722 49.0733 54.5098 49.0733C54.6473 49.0733 54.7849 49.0328 54.9036 48.9511L60.5045 45.1002C60.6953 44.9763 60.8216 44.7617 60.8216 44.5173C60.8216 44.1336 60.5115 43.8223 60.1275 43.8223H60.1257Z" fill="#8D8F9F"/>
<path d="M54.5089 47.2795L57.549 45.2793L51.4674 45.2813L54.5089 47.2795Z" stroke="#8D8F9F" stroke-width="0.666667" stroke-linejoin="round"/>
<path d="M59.1917 66.004V63.7194L65.4338 58.0887L63.2138 41.6787L45.8024 41.6828L43.5822 58.0928L49.9803 63.7194V66.004" stroke="#8D8F9F" stroke-width="0.666667" stroke-linejoin="round"/>
<path d="M70.2929 76.4612L67.1717 71.6028L59.0633 66.0039L49.9532 66.008L41.8448 71.6065L38.7239 76.4652" stroke="#8D8F9F" stroke-width="0.666667" stroke-linejoin="round"/>
<path d="M62.7763 68.5684L59.5993 72.6521V81.8028L49.4168 81.8068V72.6562L46.2395 68.5724" stroke="#8D8F9F" stroke-width="0.666667" stroke-linejoin="round"/>
<path d="M58.6431 89.2035L59.213 83.2832L49.8029 83.2873L50.3725 89.2076L58.6431 89.2035Z" stroke="#8D8F9F" stroke-width="0.666667" stroke-linejoin="round"/>
<path d="M57.7114 89.2041V91.0294L51.3043 91.0334V89.2079" stroke="#8D8F9F" stroke-width="0.666667" stroke-linejoin="round"/>
<path d="M59.7579 70.1961H55.9857L57.8622 68.4268L59.7579 70.1961Z" stroke="#8D8F9F" stroke-width="1.33333" stroke-linecap="round" stroke-linejoin="round"/>
<path d="M56.3958 67.5898L54.5193 69.3595L52.6199 67.5939L56.3958 67.5898Z" stroke="#8D8F9F" stroke-width="1.33333" stroke-linecap="round" stroke-linejoin="round"/>
<path d="M57.5371 110.955L60.5644 99.8009C60.5644 99.8009 58.9772 98.4494 58.4409 98.1063C57.9046 97.7631 57.6043 97.3554 57.54 96.8408C57.4754 96.3259 57.3897 93.0654 57.3897 93.0654L51.626 93.0692C51.626 93.0692 51.5403 96.3299 51.476 96.8445C51.4117 97.3594 51.1114 97.7672 50.5751 98.1103C50.0388 98.4535 48.4513 99.805 48.4513 99.805L51.4786 110.959L57.5371 110.955Z" stroke="#8D8F9F" stroke-width="0.666667" stroke-linejoin="round"/>
<path d="M61.2281 1.24316L60.388 1.78492L58.5871 2.15212L50.4292 2.1575L48.6282 1.79032L47.7878 1.24857" fill="#9F8D8D"/>
<path d="M61.2281 1.24316L60.388 1.78492L58.5871 2.15212L50.4292 2.1575L48.6282 1.79032L47.7878 1.24857" stroke="#8D8F9F" stroke-width="0.666667" stroke-linejoin="round"/>
<path d="M50.3458 29.7119H58.6706" stroke="#8D8F9F" stroke-width="0.666667" stroke-linejoin="round"/>
<path d="M50.8817 36.2528V34.365H53.7498V36.2236L53.192 36.5242L50.8753 36.2667L49.3121 35.0652L49.7598 32.9631L50.3486 31.9365" stroke="#8D8F9F" stroke-width="0.666667" stroke-linejoin="round"/>
<path d="M49.8265 32.9502L50.9287 34.366" stroke="#8D8F9F" stroke-width="0.666667" stroke-linejoin="round"/>
<path d="M48.5918 37.0068L50.5294 37.6619L54.0169 37.692" stroke="#8D8F9F" stroke-width="0.666667" stroke-linejoin="round"/>
<path d="M51.0006 32.9867L51.0307 31.4751L52.3608 30.8359" stroke="#8D8F9F" stroke-width="0.666667" stroke-linejoin="round"/>
<path d="M50.1002 30.5244L51.031 31.4751" stroke="#8D8F9F" stroke-width="0.666667" stroke-linejoin="round"/>
<path d="M53.7499 34.365L52.47 33.3535" stroke="#8D8F9F" stroke-width="0.666667" stroke-linejoin="round"/>
<path d="M53.0609 31.5146V29.7119" stroke="#8D8F9F" stroke-width="0.666667" stroke-linejoin="round"/>
<path d="M50.5294 37.6621V38.2717" stroke="#8D8F9F" stroke-width="0.666667" stroke-linejoin="round"/>
<path d="M6.63049 124.22L8.47635 127.414" stroke="#8D8F9F" stroke-width="0.666667" stroke-linejoin="round"/>
<path d="M11.8584 130.708L9.09436 128.089L10.7699 126.734" stroke="#8D8F9F" stroke-width="0.666667" stroke-linejoin="round"/>
<path d="M4.70862 126.508L6.83757 130.134L8.05983 128.743L8.09209 127.415" stroke="#8D8F9F" stroke-width="0.666667" stroke-linejoin="round"/>
<path d="M6.39829 122.261L5.51465 123.345" stroke="#8D8F9F" stroke-width="0.666667" stroke-linejoin="round"/>
<path d="M39.0771 91.0339L38.3441 90.5529L45.8771 90.1211" stroke="#8D8F9F" stroke-width="0.666667" stroke-linejoin="round"/>
<path d="M32.1388 109.034L32.9195 109.13" stroke="#8D8F9F" stroke-width="0.666667" stroke-linejoin="round"/>
<path d="M32.1863 109.73L32.8668 109.826" stroke="#8D8F9F" stroke-width="0.666667" stroke-linejoin="round"/>
<path d="M42.9709 109.284L43.765 109.364" stroke="#8D8F9F" stroke-width="0.666667" stroke-linejoin="round"/>
<path d="M62.4479 5.44238V17.9375L59.863 20.9084V29.8076" fill="#9F8D8D"/>
<path d="M62.4479 5.44238V17.9375L59.863 20.9084V29.8076" stroke="#8D8F9F" stroke-width="0.666667" stroke-linejoin="round"/>
<path d="M59.863 20.9084L64.1498 18.5703" stroke="#8D8F9F" stroke-width="0.666667" stroke-linejoin="round"/>
<path d="M64.4753 12.9375V18.5095" stroke="#8D8F9F" stroke-width="0.666667" stroke-linejoin="round"/>
<path d="M63.6277 31.4404L63.3488 34.3792L61.1555 38.2724" stroke="#8D8F9F" stroke-width="0.666667" stroke-linejoin="round"/>
<path d="M59.2445 31.1483L58.6847 31.9365L58.1041 32.9845L55.2832 33.6572V32.1479L56.6787 30.8494L58.5578 29.7119" stroke="#8D8F9F" stroke-width="0.666667" stroke-linejoin="round"/>
<path d="M59.4293 35.29L60.4478 36.9534V38.2728" stroke="#8D8F9F" stroke-width="0.666667" stroke-linejoin="round"/>
<path d="M56.4051 36.4795L55.0226 37.7065V38.3053" stroke="#8D8F9F" stroke-width="0.666667" stroke-linejoin="round"/>
<path d="M74.7304 49.6655L73.0369 50.2881L70.5991 40.6857L72.8362 36.6992L77.0033 48.916" stroke="#8D8F9F" stroke-width="0.666667" stroke-linejoin="round"/>
<path d="M67.1887 71.6071L68.0253 70.867L68.4756 68.2928L73.1733 63.1446L74.5891 58.6079L74.4605 55.8085L73.0372 50.2881" stroke="#8D8F9F" stroke-width="0.666667" stroke-linejoin="round"/>
<path d="M68.476 68.2927L77.2921 64.9141" stroke="#8D8F9F" stroke-width="0.666667" stroke-linejoin="round"/>
<path d="M74.5887 58.6084L77.3986 64.8658" stroke="#8D8F9F" stroke-width="0.666667" stroke-linejoin="round"/>
<path d="M74.4604 55.8086L76.5272 56.9745" stroke="#8D8F9F" stroke-width="0.666667" stroke-linejoin="round"/>
<path d="M74.1675 35.6016L79.1536 50.819" stroke="#8D8F9F" stroke-width="0.666667" stroke-linejoin="round"/>
<path d="M84.8115 31.2168L90.3762 47.2286" stroke="#8D8F9F" stroke-width="0.666667" stroke-linejoin="round"/>
<path d="M91.3706 50.9697L80.9055 54.5649" stroke="#8D8F9F" stroke-width="0.666667" stroke-linejoin="round"/>
<path d="M92.789 56.4309L90.4413 59.133L94.9889 72.3683L89.4975 74.5133L88.618 74.0201L94.002 71.9823L89.4547 58.8542L92.773 56.375" stroke="#8D8F9F" stroke-width="0.666667" stroke-linejoin="round"/>
<path d="M94.8794 64.6758L92.6722 65.6265L92.0881 66.4576L87.3676 68.1195L85.1288 65.8324" stroke="#8D8F9F" stroke-width="0.666667" stroke-linejoin="round"/>
<path d="M82.4775 54.0244L89.3225 73.7537" stroke="#8D8F9F" stroke-width="0.666667" stroke-linejoin="round"/>
<path d="M91.1586 50.1152L80.3168 53.8463" stroke="#8D8F9F" stroke-width="0.666667" stroke-linejoin="round"/>
<path d="M105.993 101.756L103.526 100.619L95.9842 103.029L95.2174 104.578" stroke="#8D8F9F" stroke-width="0.666667" stroke-linejoin="round"/>
<path d="M91.9917 91.3594L95.9842 103.029" stroke="#8D8F9F" stroke-width="0.666667" stroke-linejoin="round"/>
<path d="M102.266 78.9619L97.4025 81.1309L103.527 100.619" stroke="#8D8F9F" stroke-width="0.666667" stroke-linejoin="round"/>
<path d="M97.0013 70.5928L98.0502 73.6569" stroke="#8D8F9F" stroke-width="0.666667" stroke-linejoin="round"/>
<path d="M94.4883 72.5645L97.4024 81.1313L100.316 82.007" stroke="#8D8F9F" stroke-width="0.666667" stroke-linejoin="round"/>
<path d="M89.4974 74.5137L92.3504 83.0938L97.402 81.131" stroke="#8D8F9F" stroke-width="0.666667" stroke-linejoin="round"/>
<path d="M91.9917 91.0343L93.7981 87.8251L93.1081 82.8008" stroke="#8D8F9F" stroke-width="0.666667" stroke-linejoin="round"/>
<path d="M91.7146 81.1826L88.3884 81.593" stroke="#8D8F9F" stroke-width="0.666667" stroke-linejoin="round"/>
<path d="M99.5274 87.8955L91.9562 91.0335" stroke="#8D8F9F" stroke-width="0.666667" stroke-linejoin="round"/>
<path d="M98.8952 85.8828L93.7982 87.8236" stroke="#8D8F9F" stroke-width="0.666667" stroke-linejoin="round"/>
<path d="M64.9149 35.0654L69.4412 39.7425L71.2183 36.9532L72.3799 35.13" stroke="#8D8F9F" stroke-width="0.666667" stroke-linejoin="round"/>
<path d="M71.2183 36.9532L64.9149 35.0654" stroke="#8D8F9F" stroke-width="0.666667" stroke-linejoin="round"/>
<path d="M65.4512 58.0938L73.1733 63.1453L77.2921 64.915" stroke="#8D8F9F" stroke-width="0.666667" stroke-linejoin="round"/>
<path d="M69.4411 39.7427L73.8639 55.7418L74.5894 58.6078L63.2312 41.6832L69.4411 39.7427ZM69.4411 39.7427L70.5994 40.6856L73.4733 38.7998" stroke="#8D8F9F" stroke-width="0.666667" stroke-linejoin="round"/>
<path d="M68.172 73.1387L64.3353 77.1859V78.8041L59.6162 81.5931" stroke="#8D8F9F" stroke-width="0.666667" stroke-linejoin="round"/>
<path d="M68.8213 74.1494L65.4508 77.3658V79.8983L59.9889 83.0945L59.6162 89.1222L60.2597 89.8789L64.7216 87.2772L68.0855 83.7897" stroke="#8D8F9F" stroke-width="0.666667" stroke-linejoin="round"/>
<path d="M65.4511 70.4072L60.8606 76.2082V80.8575" stroke="#8D8F9F" stroke-width="0.666667" stroke-linejoin="round"/>
<path d="M64.5427 87.3805L65.1665 80.0635" stroke="#8D8F9F" stroke-width="0.666667" stroke-linejoin="round"/>
<path d="M63.821 87.8027L64.5427 88.7578L63.1558 90.1209L62.2764 90.2593L61.6543 91.3748L60.3674 91.5462L57.407 93.82" stroke="#8D8F9F" stroke-width="0.666667" stroke-linejoin="round"/>
<path d="M62.2765 90.2588V88.7031" stroke="#8D8F9F" stroke-width="0.666667" stroke-linejoin="round"/>
<path d="M63.2197 90.0908L61.8152 94.3243H59.8524L58.1149 95.8686L57.4645 95.4844" stroke="#8D8F9F" stroke-width="0.666667" stroke-linejoin="round"/>
<path d="M62.9642 90.8604L69.9557 91.0338V93.8205C69.9557 93.8205 66.0622 95.3061 65.5795 95.483C65.097 95.66 64.786 96.0836 64.7431 97.0436C64.2763 97.0436 62.555 97.0436 62.555 97.0436L60.7211 94.3247" stroke="#8D8F9F" stroke-width="0.666667" stroke-linejoin="round"/>
<path d="M61.8154 94.3242V95.9459" stroke="#8D8F9F" stroke-width="0.666667" stroke-linejoin="round"/>
<path d="M62.5553 97.043L60.5818 99.8048" stroke="#8D8F9F" stroke-width="0.666667" stroke-linejoin="round"/>
<path d="M60.6288 105.745L62.5551 97.043" stroke="#8D8F9F" stroke-width="0.666667" stroke-linejoin="round"/>
<path d="M63.2633 97.043L61.7971 106.133" stroke="#8D8F9F" stroke-width="0.666667" stroke-linejoin="round"/>
<path d="M65.3518 108.997L64.7428 97.043" stroke="#8D8F9F" stroke-width="0.666667" stroke-linejoin="round"/>
<path d="M75.5624 93.375L76.8945 108.827" stroke="#8D8F9F" stroke-width="0.666667" stroke-linejoin="round"/>
<path d="M66.3029 112.989C66.3029 112.989 67.8965 132.196 68.0253 133.869C68.1539 135.542 68.1539 137.087 68.0253 139.403C67.8965 141.72 67.65 142.02 68.8834 158.666L77.7693 158.237L76.311 136.876L79.4084 136.831" stroke="#8D8F9F" stroke-width="0.666667" stroke-linejoin="round"/>
<path d="M79.8517 148.194L80.0283 153.063" stroke="#8D8F9F" stroke-width="0.666667" stroke-linejoin="round"/>
<path d="M81.9041 135.22L77.8713 134.877L76.311 136.876L68.1212 136.272" stroke="#8D8F9F" stroke-width="0.666667" stroke-linejoin="round"/>
<path d="M77.8711 134.877L76.091 108.795L66.0624 109.029L66.1577 111.596L76.3265 111.346" stroke="#8D8F9F" stroke-width="0.666667" stroke-linejoin="round"/>
<path d="M80.8678 116.249L76.4424 113.955" stroke="#8D8F9F" stroke-width="0.666667" stroke-linejoin="round"/>
<path d="M66.5226 115.642L62.6729 120.639" stroke="#8D8F9F" stroke-width="0.666667" stroke-linejoin="round"/>
<path d="M76.3932 158.271L76.5855 160.639" stroke="#8D8F9F" stroke-width="0.666667" stroke-linejoin="round"/>
<path d="M69.9635 158.529L70.1558 161.046" stroke="#8D8F9F" stroke-width="0.666667" stroke-linejoin="round"/>
<path d="M66.8536 162.053L69.1585 162.011" stroke="#8D8F9F" stroke-width="0.666667" stroke-linejoin="round"/>
<path d="M69.7295 167.599L67.4247 169.262L66.1659 168.168L69.5054 165.272" stroke="#8D8F9F" stroke-width="0.666667" stroke-linejoin="round"/>
<path d="M70.7705 177.972L68.0464 176.213L66.9691 176.859" stroke="#8D8F9F" stroke-width="0.666667" stroke-linejoin="round"/>
<path d="M68.0463 176.212L67.4243 169.262" stroke="#8D8F9F" stroke-width="0.666667" stroke-linejoin="round"/>
<path d="M69.1405 160.639H64.3374" stroke="#8D8F9F" stroke-width="0.666667" stroke-linejoin="round"/>
<path d="M68.8832 158.665L69.5052 165.272L78.3272 165.05L77.7691 158.236" stroke="#8D8F9F" stroke-width="0.666667" stroke-linejoin="round"/>
<path d="M71.1896 182.534L68.6337 181.002" stroke="#8D8F9F" stroke-width="0.666667" stroke-linejoin="round"/>
<path d="M78.8043 177.435H79.2546L82.6234 174.683" stroke="#8D8F9F" stroke-width="0.666667" stroke-linejoin="round"/>
<path d="M80.958 177.104L80.9163 176.06" stroke="#8D8F9F" stroke-width="0.666667" stroke-linejoin="round"/>
<path d="M81.9535 201.573L82.0045 203.225" stroke="#8D8F9F" stroke-width="0.666667" stroke-linejoin="round"/>
<path d="M71.2893 202.189L71.4263 203.837" stroke="#8D8F9F" stroke-width="0.666667" stroke-linejoin="round"/>
<path d="M82.3401 209.334L80.0808 207.263L73.7849 207.183L71.5979 209.817" stroke="#8D8F9F" stroke-width="0.666667" stroke-linejoin="round"/>
<path d="M73.8327 207.278L74.4817 216.674L73.1733 218.084V219.062" stroke="#8D8F9F" stroke-width="0.666667" stroke-linejoin="round"/>
<path d="M71.5979 209.774L73.1735 218.084" stroke="#8D8F9F" stroke-width="0.666667" stroke-linejoin="round"/>
<path d="M82.0281 218.234L80.7024 216.786L80.0803 207.262" stroke="#8D8F9F" stroke-width="0.666667" stroke-linejoin="round"/>
<path d="M80.7028 216.786L74.4819 216.674" stroke="#8D8F9F" stroke-width="0.666667" stroke-linejoin="round"/>
<path d="M82.0923 218.64H80.7029L80.2042 217.607H74.9754L74.0905 219.096L72.3208 219.031" stroke="#8D8F9F" stroke-width="0.666667" stroke-linejoin="round"/>
<path d="M79.5751 205.752L79.6889 207.258" stroke="#8D8F9F" stroke-width="0.666667" stroke-linejoin="round"/>
<path d="M73.8275 206.011L73.9778 207.182" stroke="#8D8F9F" stroke-width="0.666667" stroke-linejoin="round"/>
<path d="M85.3362 225.142H70.2325" stroke="#8D8F9F" stroke-width="0.666667" stroke-linejoin="round"/>
<path d="M80.1353 217.607L81.0889 224.413" stroke="#8D8F9F" stroke-width="0.666667" stroke-linejoin="round"/>
<path d="M74.9754 217.607L74.8037 224.413" stroke="#8D8F9F" stroke-width="0.666667" stroke-linejoin="round"/>
<path d="M74.0907 219.096L74.8039 224.413" stroke="#8D8F9F" stroke-width="0.666667" stroke-linejoin="round"/>
<path d="M81.0265 218.64L81.0887 224.412" stroke="#8D8F9F" stroke-width="0.666667" stroke-linejoin="round"/>
<path d="M77.5314 153.772L68.562 154.225" stroke="#8D8F9F" stroke-width="0.666667" stroke-linejoin="round"/>
<path d="M61.1555 38.2725L63.2307 41.6832" stroke="#8D8F9F" stroke-width="0.666667" stroke-linejoin="round"/>
<path d="M63.3487 34.3787L60.5386 33.2846L59.2731 32.9629" stroke="#8D8F9F" stroke-width="0.666667" stroke-linejoin="round"/>
<path d="M106.904 118.564L104.556 116.971H103.39L102.847 116.172L100.73 118.143" stroke="#8D8F9F" stroke-width="0.666667" stroke-linejoin="round"/>
<path d="M103.301 103.928L102.399 102.575L95.6567 105.167" stroke="#8D8F9F" stroke-width="0.666667" stroke-linejoin="round"/>
<path d="M99.1597 103.821L100.418 104.904L103.66 103.807" stroke="#8D8F9F" stroke-width="0.666667" stroke-linejoin="round"/>
<path d="M100.418 104.904L99.435 107.601L99.8523 108.407L98.3806 109.338L96.6156 109.64" stroke="#8D8F9F" stroke-width="0.666667" stroke-linejoin="round"/>
<path d="M99.8527 108.407L100.34 109.165L97.8019 110.729L98.7019 112.951" stroke="#8D8F9F" stroke-width="0.666667" stroke-linejoin="round"/>
<path d="M101.02 104.677L100.442 107.097L101.856 109.039L102.719 111.938L104.204 115.965L104.556 116.971" stroke="#8D8F9F" stroke-width="0.666667" stroke-linejoin="round"/>
<path d="M99.9032 116.478L104.204 115.964" stroke="#8D8F9F" stroke-width="0.666667" stroke-linejoin="round"/>
<path d="M104.208 104.116L104.037 108.679L102.82 112.041" stroke="#8D8F9F" stroke-width="0.666667" stroke-linejoin="round"/>
<path d="M108.243 116.836L102.719 111.938" stroke="#8D8F9F" stroke-width="0.666667" stroke-linejoin="round"/>
<path d="M98.7811 113.072L102.672 111.781" stroke="#8D8F9F" stroke-width="0.666667" stroke-linejoin="round"/>
<path d="M104.396 116.97L103.518 123.345L102.212 123.225L102.127 123.92L102.878 124.735L101.296 127.419H100.657L99.9386 128.088L100.21 128.793L98.2726 130.707" stroke="#8D8F9F" stroke-width="0.666667" stroke-linejoin="round"/>
<path d="M103.39 116.97L102.635 122.26L100.36 121.651" stroke="#8D8F9F" stroke-width="0.666667" stroke-linejoin="round"/>
<path d="M98.6523 126.328L100.657 127.42" stroke="#8D8F9F" stroke-width="0.666667" stroke-linejoin="round"/>
<path d="M100.401 122.799L102.128 123.921" stroke="#8D8F9F" stroke-width="0.666667" stroke-linejoin="round"/>
<path d="M102.213 123.226L100.52 122.359" stroke="#8D8F9F" stroke-width="0.666667" stroke-linejoin="round"/>
<path d="M99.3915 129.593H100.482L101.728 130.414L98.8361 133.01" stroke="#8D8F9F" stroke-width="0.666667" stroke-linejoin="round"/>
<path d="M100.434 129.557L100.973 128.742" stroke="#8D8F9F" stroke-width="0.666667" stroke-linejoin="round"/>
<path d="M105.836 117.84L105.595 124.864" stroke="#8D8F9F" stroke-width="0.666667" stroke-linejoin="round"/>
<path d="M102.878 124.736L104.324 125.647L105.618 124.85" stroke="#8D8F9F" stroke-width="0.666667" stroke-linejoin="round"/>
<path d="M104.325 125.646L104.421 127.678" stroke="#8D8F9F" stroke-width="0.666667" stroke-linejoin="round"/>
<path d="M102.878 112.08L107.458 108.897" stroke="#8D8F9F" stroke-width="0.666667" stroke-linejoin="round"/>
<path d="M92.0178 116.357L92.2489 111.723L94.3945 112.692" stroke="#8D8F9F" stroke-width="0.666667" stroke-linejoin="round"/>
<path d="M94.8652 111.826L92.9528 110.931L91.7712 110.958" stroke="#8D8F9F" stroke-width="0.666667" stroke-linejoin="round"/>
<path d="M94.9219 107.704L92.9528 110.932" stroke="#8D8F9F" stroke-width="0.666667" stroke-linejoin="round"/>
<path d="M96.5905 109.688L94.937 107.612L93.4042 107.754" stroke="#8D8F9F" stroke-width="0.666667" stroke-linejoin="round"/>
<path d="M97.5315 109.436L95.5646 107.224L94.0234 106.498" stroke="#8D8F9F" stroke-width="0.666667" stroke-linejoin="round"/>
<path d="M82.2912 165.874L78.3323 165.015L80.0805 205.728L73.4307 206.029L69.5054 165.272" stroke="#8D8F9F" stroke-width="0.666667" stroke-linejoin="round"/>
<path d="M78.038 161.967L69.2178 162.22" stroke="#8D8F9F" stroke-width="0.666667" stroke-linejoin="round"/>
<path d="M58.1516 36.2528V34.365H55.2832V36.2236L55.8409 36.5242L58.1576 36.2667L59.7208 35.0652L59.2731 32.9631L58.6847 31.9365" stroke="#8D8F9F" stroke-width="0.666667" stroke-linejoin="round"/>
<path d="M59.2063 32.9502L58.1041 34.366" stroke="#8D8F9F" stroke-width="0.666667" stroke-linejoin="round"/>
<path d="M60.4416 37.0068L58.5037 37.6619L55.0162 37.692" stroke="#8D8F9F" stroke-width="0.666667" stroke-linejoin="round"/>
<path d="M58.0325 32.9867L58.0024 31.4751L56.6724 30.8359" stroke="#8D8F9F" stroke-width="0.666667" stroke-linejoin="round"/>
<path d="M58.9334 30.5244L58.0027 31.4751" stroke="#8D8F9F" stroke-width="0.666667" stroke-linejoin="round"/>
<path d="M55.2832 34.365L56.5632 33.3535" stroke="#8D8F9F" stroke-width="0.666667" stroke-linejoin="round"/>
<path d="M55.9714 31.5146V29.7119" stroke="#8D8F9F" stroke-width="0.666667" stroke-linejoin="round"/>
<path d="M58.5037 37.6621V38.2717" stroke="#8D8F9F" stroke-width="0.666667" stroke-linejoin="round"/>
<path d="M102.402 124.22L100.557 127.414" stroke="#8D8F9F" stroke-width="0.666667" stroke-linejoin="round"/>
<path d="M97.1742 130.708L99.9383 128.089L98.2628 126.734" stroke="#8D8F9F" stroke-width="0.666667" stroke-linejoin="round"/>
<path d="M104.325 126.508L102.196 130.134L100.974 128.743L100.941 127.415" stroke="#8D8F9F" stroke-width="0.666667" stroke-linejoin="round"/>
<path d="M102.635 122.261L103.518 123.345" stroke="#8D8F9F" stroke-width="0.666667" stroke-linejoin="round"/>
<path d="M69.9558 91.0339L70.689 90.5529L63.156 90.1211" stroke="#8D8F9F" stroke-width="0.666667" stroke-linejoin="round"/>
<path d="M76.8942 109.034L76.1138 109.13" stroke="#8D8F9F" stroke-width="0.666667" stroke-linejoin="round"/>
<path d="M76.8467 109.73L76.1665 109.826" stroke="#8D8F9F" stroke-width="0.666667" stroke-linejoin="round"/>
<path d="M66.0625 109.284L65.2684 109.364" stroke="#8D8F9F" stroke-width="0.666667" stroke-linejoin="round"/>
<path d="M46.5814 5.47299L48.6647 1.73145" stroke="#8D8F9F" stroke-width="0.666667" stroke-linejoin="round"/>
<path d="M62.4673 5.47299L60.384 1.73145" stroke="#8D8F9F" stroke-width="0.666667" stroke-linejoin="round"/>
<path d="M60.6026 0.868768L64.3646 3.9148V6.41918H64.6864V9.5644H64.378V13.1708H65.1503V17.8471L63.9491 18.555V26.17L59.9592 29.5592L58.4362 29.6021L59.0368 31.4256H63.6274L72.3792 35.115L72.8081 36.9385L74.2668 35.587L73.1915 32.2541L83.6838 28.5512L84.7565 31.3289L86.5797 31.5221L91.4705 45.1433L91.4812 46.4517L90.269 47.1919L91.1581 50.0999L90.6768 51.1925L92.46 56.3364L92.1594 56.7045L96.9512 70.7234L99.0748 70.5948L102.325 80.505L99.7825 81.7923L105.993 101.741L104.705 103.415L103.225 103.801L105.864 104.895L107.119 109.046L108.181 118.602L106.508 118.28L106.186 124.683L105.542 124.78L104.883 126.517L102.952 129.944L101.951 129.841L101.576 130.428L101.874 130.941L99.9273 132.856L98.9462 132.888L97.5463 131.553L98.5599 130.668L97.2889 130.588L95.841 129.059L97.7073 127.048L98.592 126.984L99.0264 126.549L98.9783 125.648L100.024 123.46L100.748 123.01L100.941 122.495L100.619 121.707L100.861 118.006L98.769 112.842L97.2889 111.716L96.5971 109.528L95.8088 111.362L94.57 111.668L94.6988 112.199L94.3128 112.739L94.6988 113.1L94.1518 115.931L90.8699 116.607L90.5157 116.06L91.0306 112.456L92.4609 111.803L91.7708 110.944L93.122 108.241L93.7012 107.823L94.0232 106.483L95.8893 105.152L95.3423 104.219L92.3821 95.2739L92.1568 91.5415L89.969 84.6235L89.261 84.495L86.4294 75.035L88.6175 74.0056L87.7487 72.8472L81.2168 54.4423L80.3159 53.8309L79.2219 50.7098L77.7097 50.0342L77.034 48.6827L74.5885 49.6157L76.326 56.8878L77.2915 64.8995L71.7894 76.4508H70.3093L68.9899 74.5526L67.6384 84.2375H69.0542L71.2102 84.8488L72.1432 87.584L70.5667 90.6406H75.2001L75.4897 93.4721H77.5811L78.1924 93.987L79.2865 107.919L76.8088 108.779L76.8409 109.914L80.3374 113.389L81.9035 135.205L81.2383 136.492L79.0719 136.728L79.801 149.105H81.3136L81.7317 149.716L82.4612 160.667L78.2353 161.31L81.6031 163.756L82.268 165.086L82.5469 174.61L82.3323 174.867V176.004L81.41 176.927H80.8737L81.8927 201.971L82.8794 201.906L83.3189 208.588L81.9892 209.039L81.8389 218.734L85.3356 219.378V229.127H70.2447L70.2125 219.121H72.7224L71.6605 216.16V209.725L70.7917 209.307L70.5989 202.711L71.4355 202.582L69.6334 181.474L68.0676 180.541L67.1881 176.712L66.1583 168.765L66.2012 164.936L67.3167 164.099L66.9521 161.954L64.6997 161.203L63.9705 150.928L68.0676 150.006V149.148L65.1074 147.818L62.7907 117.551L66.4158 113.003V112.596L65.4506 108.804L61.9113 108.032V106.118L61.4123 105.667H60.5598L57.9856 113.861L56.7416 114.719L52.308 114.723L51.0636 113.865L48.4895 105.671H47.637L47.1383 106.121V108.036L43.599 108.808L42.6335 112.6V113.007L46.2588 117.555L43.9421 147.822L40.982 149.152V150.01L45.0791 150.932L44.3496 161.207L42.0972 161.958L41.7326 164.103L42.8481 164.939L42.8909 168.769L41.8615 176.716L40.982 180.545L39.4159 181.478L37.6141 202.586L38.4507 202.715L38.2576 209.311L37.3888 209.729V216.164L36.3269 219.125H38.8367L38.8046 229.131H23.7139V219.382L27.2104 218.738L27.0603 209.043L25.7303 208.592L26.1701 201.91L27.1568 201.974L28.1757 176.931H27.6394L26.717 176.008V174.871L26.5025 174.614L26.7814 165.09L27.4464 163.76L30.814 161.314L26.5884 160.671L27.3176 149.72L27.736 149.109H29.2482L29.9777 136.732L27.811 136.496L27.1461 135.209L28.7119 113.393L32.2084 109.918L32.2405 108.783L29.7631 107.923L30.8572 93.9908L31.4685 93.4762H33.5599L33.8495 90.6446H38.4829L36.9063 87.5877L37.8394 84.8529L39.9951 84.2416H41.4109L40.0594 74.5564L38.7403 76.4549H37.2602L31.7581 64.9036L32.7233 56.8916L34.4608 49.6198L32.0155 48.6867L31.3396 50.0382L29.8274 50.7138L28.7333 53.835L27.8325 54.4463L21.3007 72.851L20.4319 74.0093L22.6199 75.0391L19.7884 84.499L19.0806 84.6276L16.8926 91.5455L16.6673 95.278L13.7071 104.223L13.1601 105.156L15.0263 106.486L15.3481 107.827L15.9273 108.245L17.2787 110.948L16.5885 111.807L18.0187 112.46L18.5335 116.064L18.1796 116.611L14.8976 115.935L14.3506 113.104L14.7366 112.743L14.3506 112.203L14.4793 111.672L13.2406 111.366L12.4522 109.532L11.7605 111.72L10.2803 112.846L8.18887 118.011L8.43021 121.711L8.10842 122.499L8.30149 123.014L9.02545 123.464L10.0712 125.652L10.0229 126.553L10.4573 126.988L11.3421 127.052L13.2084 129.063L11.7605 130.591L10.5212 130.623L11.503 131.557L10.1034 132.892L9.12197 132.86L7.17532 130.945L7.47371 130.432L7.09811 129.845L6.09742 129.948L4.16683 126.521L3.50724 124.784L2.86369 124.687L2.54193 118.284L0.86876 118.606L1.93058 109.05L3.18545 104.899L5.82393 103.805L4.3438 103.419L3.05676 101.745L9.26677 81.796L6.72486 80.5091L9.97466 70.5989L12.0983 70.7274L16.89 56.7086L16.5553 56.4387L18.3727 51.1966L17.8914 50.1037L18.7802 47.1959L17.5683 46.4557L17.579 45.1474L22.4698 31.5261L24.2931 31.333L25.3656 28.555L35.8578 32.2582L34.7825 35.591L36.2412 36.9423L36.6703 35.119L45.4222 31.4294H50.0127L50.6133 29.6062L49.0904 29.5633L45.1005 26.174V18.559L43.8993 17.8511V13.1748H44.6713V9.5684H44.3629V6.42317H44.6849V3.91877L48.4467 0.872767L60.6026 0.868768ZM60.6026 0L48.4464 0.00400787C48.2474 0.00406578 48.0546 0.0724082 47.9002 0.19757L44.1382 3.24357C43.9343 3.40852 43.8162 3.65664 43.8162 3.91877V5.7482C43.6198 5.90748 43.4941 6.15067 43.4941 6.42317V9.5684C43.4941 9.83462 43.614 10.0729 43.8026 10.2323V12.3114C43.3682 12.3594 43.0305 12.7276 43.0305 13.1748V17.8511C43.0305 18.1587 43.193 18.4434 43.4582 18.5996L44.2317 19.0554V26.174C44.2317 26.429 44.3438 26.6711 44.5381 26.8362L48.5277 30.2253C48.6786 30.3533 48.8683 30.426 49.0658 30.4318L49.4234 30.4416L49.384 30.5606H45.4222C45.3064 30.5606 45.1914 30.5838 45.0846 30.629L36.3327 34.3186C36.2212 34.3655 36.1221 34.4347 36.0411 34.5202L36.6845 32.5249C36.829 32.0772 36.5907 31.5956 36.147 31.439L25.6548 27.7359C25.5592 27.7022 25.4617 27.6861 25.3657 27.6861C25.0163 27.6861 24.6879 27.8983 24.5552 28.2422L23.6738 30.525L22.3783 30.662C22.0469 30.697 21.7647 30.9189 21.6521 31.2325L16.7614 44.8538C16.7283 44.9456 16.7111 45.0426 16.7103 45.1402L16.6995 46.4488C16.697 46.754 16.8549 47.0381 17.1155 47.1974L17.7525 47.5863L17.0606 49.8497C16.9997 50.0489 17.0124 50.2632 17.0963 50.4541L17.4401 51.2342L15.7345 56.1543C15.6352 56.4407 15.6935 56.7532 15.8781 56.9828L11.4903 69.8202L10.0272 69.7316C10.0095 69.7304 9.99181 69.7301 9.97426 69.7301C9.60101 69.7301 9.26671 69.9696 9.14914 70.3281L5.89934 80.2383C5.76567 80.6461 5.94961 81.0903 6.33242 81.284L8.2189 82.2394L2.22725 101.487C2.14323 101.757 2.1958 102.051 2.36815 102.275L3.54743 103.808L2.85269 104.096C2.61224 104.196 2.4292 104.398 2.35388 104.647L1.099 108.798C1.08364 108.849 1.07299 108.901 1.06713 108.953L0.00531737 118.51C-0.0251529 118.784 0.0765383 119.057 0.279318 119.244C0.441255 119.394 0.652271 119.475 0.868766 119.475C0.923347 119.475 0.978255 119.469 1.03284 119.459L1.72446 119.326L1.99604 124.731C2.0168 125.144 2.32584 125.485 2.73483 125.546L2.87551 125.567L3.35463 126.83C3.37009 126.87 3.38857 126.91 3.40994 126.947L5.34053 130.374C5.49548 130.65 5.78597 130.817 6.09716 130.817C6.12664 130.817 6.15632 130.815 6.18609 130.812L6.31901 130.798C6.27204 131.073 6.3588 131.361 6.56617 131.565L8.51283 133.479C8.66828 133.632 8.87556 133.721 9.09351 133.728L10.0749 133.76C10.0844 133.761 10.0939 133.761 10.1035 133.761C10.3264 133.761 10.5412 133.675 10.7031 133.521L12.1027 132.185C12.2747 132.021 12.3719 131.794 12.3718 131.556C12.3717 131.453 12.3534 131.352 12.3185 131.257C12.3439 131.236 12.3682 131.213 12.3911 131.189L13.8391 129.661C14.1541 129.328 14.1568 128.808 13.8452 128.472L11.9789 126.461C11.8294 126.3 11.6244 126.201 11.4052 126.186L10.9146 126.15L10.9387 125.699C10.9465 125.554 10.9177 125.409 10.8551 125.278L9.80931 123.09C9.73787 122.94 9.62513 122.814 9.48445 122.727L9.06133 122.464L9.23457 122.039C9.28432 121.917 9.30569 121.786 9.29715 121.654L9.06875 118.152L10.9961 113.393L12.2865 112.411C12.4292 112.303 12.5348 112.153 12.5888 111.982L12.5985 111.951C12.713 112.077 12.8633 112.168 13.0325 112.21L13.4902 112.322C13.5064 112.439 13.5461 112.551 13.6078 112.653C13.4975 112.835 13.4562 113.054 13.4977 113.269L14.0447 116.1C14.1113 116.444 14.3787 116.715 14.7225 116.786L18.0045 117.462C18.0629 117.474 18.1217 117.48 18.1798 117.48C18.4704 117.48 18.7469 117.333 18.909 117.083L19.2629 116.536C19.3768 116.36 19.4232 116.148 19.3936 115.941L18.8788 112.337C18.8369 112.044 18.6488 111.793 18.3796 111.67L17.965 111.48C18.1696 111.217 18.2054 110.859 18.0557 110.559L16.7043 107.856C16.6417 107.731 16.5495 107.623 16.4359 107.541L16.1177 107.311L15.8711 106.284C15.8222 106.08 15.7013 105.901 15.5307 105.779L14.3115 104.91L14.4566 104.662C14.4875 104.61 14.5127 104.554 14.5319 104.496L17.4921 95.5508C17.5157 95.4795 17.53 95.4054 17.5345 95.3304L17.7533 91.7051L19.751 85.3886L19.9438 85.3536C20.2654 85.2951 20.527 85.0611 20.6207 84.7481L23.4522 75.2881C23.5756 74.8763 23.379 74.4362 22.9899 74.2529L21.7669 73.6775L21.9957 73.3722C22.0484 73.3021 22.0901 73.2243 22.1195 73.1417L28.5561 55.0052L29.2213 54.5537C29.3754 54.4492 29.4918 54.298 29.5532 54.1223L30.5236 51.3544L31.6941 50.8314C31.8777 50.7494 32.0268 50.6064 32.1169 50.4266L32.4406 49.7788L33.4385 50.1596L31.8783 56.6897C31.8707 56.7222 31.8646 56.7549 31.8609 56.7876L30.8954 64.7996C30.8757 64.9629 30.9029 65.1286 30.9736 65.2771L36.4757 76.8284C36.6199 77.1311 36.9252 77.3236 37.2602 77.3236H38.7403C39.025 77.3236 39.2914 77.1843 39.4538 76.9507L39.506 76.8754L40.4124 83.3728H39.9951C39.9149 83.3728 39.8352 83.3838 39.7582 83.4058L37.6022 84.0171C37.328 84.0947 37.1091 84.3024 37.017 84.5723L36.0839 87.3074C36.0078 87.531 36.0257 87.776 36.134 87.9859L37.0572 89.7759H33.8495C33.4038 89.7759 33.0305 90.1129 32.9853 90.5563L32.7754 92.6074H31.4685C31.2638 92.6074 31.0654 92.6795 30.9087 92.8116L30.2974 93.3265C30.1196 93.4762 30.0093 93.6911 29.991 93.923L28.897 107.855C28.866 108.249 29.1049 108.614 29.4782 108.744L31.3541 109.395L31.3501 109.547L28.0996 112.777C27.9508 112.925 27.8605 113.122 27.8455 113.331L26.2796 135.147C26.2682 135.306 26.3009 135.465 26.3743 135.608L27.0393 136.894C27.173 137.153 27.4275 137.328 27.717 137.36L29.0617 137.506L28.4293 148.24H27.736C27.4492 148.24 27.181 148.381 27.019 148.618L26.6007 149.23C26.5129 149.358 26.4612 149.507 26.4509 149.662L25.7216 160.613C25.6916 161.063 26.0114 161.462 26.4576 161.53L28.5914 161.855L26.936 163.057C26.8232 163.139 26.7317 163.247 26.6694 163.371L26.0044 164.701C25.9479 164.814 25.9167 164.938 25.9131 165.064L25.6342 174.588C25.628 174.8 25.6995 175.007 25.8352 175.17L25.8483 175.186V176.008C25.8483 176.239 25.9399 176.46 26.1028 176.623L27.0252 177.545C27.098 177.618 27.1825 177.676 27.2742 177.719L26.325 201.05L26.2266 201.043C26.2074 201.042 26.1882 201.041 26.1692 201.041C25.7154 201.041 25.3335 201.394 25.3032 201.853L24.8635 208.535C24.8376 208.928 25.0789 209.289 25.4517 209.415L26.2011 209.669L26.3304 218.017L23.5567 218.527C23.1445 218.603 22.8452 218.963 22.8452 219.382V229.131C22.8452 229.611 23.2342 230 23.714 230H38.8046C39.2833 230 39.6719 229.613 39.6733 229.134L39.7055 219.127C39.7064 218.896 39.6151 218.675 39.4521 218.511C39.2891 218.348 39.0678 218.256 38.8367 218.256H37.5617L38.2066 216.457C38.2405 216.363 38.2576 216.264 38.2576 216.164V210.275L38.6346 210.094C38.9271 209.952 39.1165 209.661 39.126 209.336L39.3192 202.74C39.3319 202.302 39.0163 201.923 38.5828 201.856L38.5489 201.851L40.2438 181.996L41.4265 181.291C41.6304 181.17 41.7755 180.971 41.8287 180.74L42.7082 176.911C42.7143 176.883 42.7192 176.856 42.723 176.828L43.7528 168.88C43.7577 168.84 43.7603 168.799 43.7597 168.759L43.7168 164.93C43.7139 164.66 43.5854 164.407 43.3693 164.244L42.6781 163.726L42.8666 162.617L44.6244 162.031C44.9577 161.92 45.1914 161.619 45.2163 161.269L45.9455 150.994C45.9759 150.565 45.6889 150.179 45.2699 150.085L42.4424 149.448L44.298 148.614C44.5885 148.484 44.784 148.205 44.8083 147.888L47.125 117.621C47.1418 117.402 47.0752 117.185 46.9382 117.013L43.5034 112.704L44.3085 109.542L47.3236 108.885C47.7227 108.798 48.0071 108.444 48.0071 108.036V107.033L50.2348 114.125C50.2931 114.31 50.4112 114.47 50.5705 114.58L51.8148 115.438C51.9596 115.538 52.1319 115.592 52.308 115.592H52.3086L56.7424 115.588C56.9182 115.588 57.0899 115.534 57.2347 115.434L58.4788 114.576C58.6384 114.466 58.7565 114.306 58.8144 114.121L61.0425 107.029V108.032C61.0425 108.44 61.3269 108.794 61.7259 108.881L64.7411 109.538L65.5462 112.7L62.1114 117.009C61.9744 117.181 61.9078 117.398 61.9246 117.617L64.2413 147.884C64.2653 148.201 64.4611 148.48 64.7512 148.61L66.6072 149.444L63.7797 150.08C63.3606 150.175 63.0737 150.561 63.1038 150.99L63.8333 161.265C63.8582 161.615 64.0919 161.916 64.4252 162.027L66.183 162.613L66.3715 163.722L65.6802 164.241C65.4642 164.403 65.3356 164.656 65.3327 164.926L65.2899 168.755C65.2893 168.795 65.2916 168.836 65.2968 168.876L66.3266 176.824C66.3301 176.852 66.3353 176.879 66.3414 176.907L67.2208 180.736C67.2738 180.967 67.4192 181.166 67.6228 181.287L68.8057 181.992L70.5007 201.847L70.4668 201.852C70.0333 201.918 69.7177 202.298 69.7304 202.736L69.9235 209.332C69.9331 209.657 70.1225 209.949 70.415 210.089L70.7917 210.271V216.16C70.7917 216.26 70.8091 216.359 70.843 216.453L71.4879 218.252H70.2125C69.9818 218.252 69.7605 218.344 69.5975 218.507C69.4344 218.671 69.3432 218.892 69.3438 219.123L69.3762 229.13C69.3777 229.609 69.7663 229.996 70.245 229.996H85.3356C85.8155 229.996 86.2044 229.607 86.2044 229.127V219.378C86.2044 218.959 85.905 218.599 85.4929 218.523L82.7192 218.013L82.8484 209.665L83.5978 209.411C83.9705 209.285 84.212 208.924 84.186 208.531L83.7464 201.849C83.716 201.39 83.334 201.037 82.8802 201.037C82.8611 201.037 82.842 201.038 82.8229 201.039L82.7244 201.046L81.7755 177.715C81.867 177.672 81.9515 177.614 82.0242 177.541L82.9468 176.618C83.1096 176.456 83.2011 176.235 83.2011 176.004V175.182L83.2144 175.166C83.3499 175.003 83.4215 174.796 83.4154 174.584L83.1365 165.06C83.1327 164.934 83.1018 164.81 83.045 164.697L82.3801 163.367C82.3178 163.242 82.2263 163.135 82.1134 163.053L80.4581 161.851L82.5921 161.526C83.038 161.458 83.358 161.06 83.3279 160.609L82.5987 149.659C82.5883 149.503 82.5365 149.354 82.4487 149.226L82.0306 148.614C81.8687 148.378 81.6003 148.236 81.3136 148.236H80.6203L79.9878 137.502L81.3324 137.355C81.622 137.324 81.8765 137.149 82.0103 136.89L82.6752 135.603C82.7487 135.462 82.7815 135.302 82.7699 135.142L81.2041 113.327C81.189 113.118 81.0987 112.921 80.9498 112.773L77.6995 109.543L77.6952 109.391L79.5714 108.74C79.9447 108.61 80.1833 108.245 80.1526 107.851L79.0585 93.919C79.0403 93.687 78.93 93.4721 78.7522 93.3224L78.1406 92.8075C77.9842 92.6758 77.7858 92.6034 77.5811 92.6034H76.2742L76.0642 90.5522C76.0191 90.1089 75.6455 89.7718 75.2001 89.7718H71.9924L72.9153 87.9822C73.0239 87.7722 73.0418 87.5269 72.9657 87.3034L72.0323 84.5682C71.9402 84.2983 71.7216 84.091 71.4473 84.0131L69.2914 83.4018C69.2143 83.3798 69.1344 83.3688 69.0545 83.3688H68.6369L69.5436 76.8716L69.5957 76.9466C69.7582 77.1803 70.0246 77.3196 70.3093 77.3196H71.7894C72.1244 77.3196 72.4296 77.127 72.5738 76.8244L78.076 65.2731C78.1466 65.1245 78.1739 64.9589 78.1542 64.7955L77.1887 56.7838C77.1846 56.7508 77.1788 56.7181 77.1713 56.6857L75.611 50.1558L76.6089 49.775L76.9327 50.4228C77.0225 50.6023 77.1719 50.7454 77.3555 50.8273L78.526 51.3503L79.4961 54.1182C79.5578 54.294 79.6742 54.4451 79.8283 54.5497L80.4934 55.0012L86.9301 73.1377C86.9593 73.2205 87.001 73.2981 87.0537 73.3685L87.2825 73.6734L86.0596 74.2491C85.6707 74.4321 85.4741 74.8723 85.5971 75.2841L88.4287 84.744C88.5225 85.057 88.784 85.2913 89.1058 85.3495L89.2986 85.3849L91.2962 91.701L91.5151 95.3264C91.5195 95.4014 91.5336 95.4755 91.5574 95.547L94.5175 104.492C94.5367 104.55 94.5621 104.606 94.5928 104.658L94.7382 104.906L93.5188 105.775C93.3482 105.897 93.2274 106.076 93.1785 106.28L92.9318 107.307L92.6135 107.537C92.5 107.619 92.4079 107.727 92.3451 107.852L90.9939 110.555C90.8441 110.855 90.8798 111.213 91.0845 111.477L90.6698 111.666C90.4008 111.789 90.2125 112.04 90.1708 112.333L89.656 115.937C89.6264 116.144 89.6728 116.356 89.7866 116.532L90.1404 117.079C90.3026 117.329 90.5792 117.476 90.8696 117.476C90.9278 117.476 90.9866 117.47 91.0451 117.458L94.327 116.782C94.6707 116.711 94.9383 116.441 95.0049 116.096L95.5519 113.265C95.5934 113.05 95.5519 112.831 95.4416 112.649C95.5036 112.547 95.5433 112.435 95.5592 112.318L96.017 112.205C96.1861 112.164 96.3364 112.073 96.4511 111.947L96.4607 111.978C96.5148 112.149 96.6202 112.299 96.763 112.407L98.0534 113.389L99.9809 118.148L99.7524 121.65C99.7437 121.782 99.7651 121.913 99.8149 122.035L99.9881 122.459L99.565 122.723C99.4243 122.81 99.3117 122.936 99.2401 123.086L98.1944 125.274C98.1319 125.405 98.1029 125.55 98.1107 125.695L98.1351 126.146L97.6442 126.182C97.425 126.197 97.22 126.296 97.0705 126.457L95.2044 128.468C94.8926 128.804 94.8955 129.324 95.2105 129.657L96.6585 131.185C96.6813 131.209 96.7057 131.232 96.7309 131.253C96.6984 131.342 96.6802 131.437 96.6779 131.534C96.6726 131.778 96.7702 132.013 96.9469 132.181L98.3465 133.517C98.5083 133.671 98.7232 133.757 98.9462 133.757C98.9557 133.757 98.965 133.757 98.9746 133.756L99.956 133.724C100.174 133.717 100.381 133.628 100.537 133.475L102.483 131.561C102.691 131.357 102.777 131.069 102.731 130.795L102.863 130.808C102.893 130.811 102.923 130.813 102.952 130.813C103.264 130.813 103.554 130.645 103.709 130.37L105.64 126.944C105.661 126.906 105.679 126.866 105.695 126.826L106.174 125.563L106.315 125.542C106.724 125.481 107.033 125.14 107.053 124.727L107.325 119.322L108.017 119.455C108.071 119.465 108.126 119.471 108.181 119.471C108.397 119.471 108.608 119.39 108.77 119.24C108.973 119.053 109.075 118.78 109.044 118.506L107.982 108.949C107.977 108.897 107.966 108.845 107.951 108.794L106.696 104.643C106.62 104.394 106.437 104.192 106.197 104.092L105.502 103.804L106.681 102.271C106.854 102.047 106.906 101.753 106.822 101.483L100.831 82.2353L102.717 81.28C103.1 81.0862 103.284 80.642 103.15 80.2343L99.9004 70.324C99.7828 69.9655 99.4483 69.726 99.0753 69.726C99.0577 69.726 99.04 69.7266 99.0224 69.7275L97.5594 69.8164L93.1377 56.88C93.3244 56.6472 93.3789 56.3344 93.281 56.0518L91.6095 51.2304L91.9533 50.45C92.0372 50.2595 92.05 50.0449 91.9889 49.8459L91.2971 47.5822L91.9339 47.1933C92.1945 47.0341 92.3526 46.75 92.35 46.4447L92.3393 45.1361C92.3384 45.0385 92.3213 44.9418 92.288 44.8497L87.3975 31.2284C87.2848 30.9148 87.0025 30.6933 86.6712 30.6582L85.3756 30.521L84.4944 28.2382C84.3615 27.8943 84.0331 27.6821 83.6838 27.6821C83.5877 27.6821 83.4904 27.6981 83.3948 27.7319L72.9025 31.4349C72.4589 31.5916 72.2203 32.0731 72.3648 32.5211L73.0085 34.5161C72.9271 34.4307 72.8284 34.3615 72.7166 34.3145L63.9647 30.6249C63.8579 30.58 63.7432 30.5569 63.6274 30.5569H59.6652L59.6261 30.4379L59.9838 30.4277C60.1813 30.4222 60.371 30.3492 60.5215 30.2215L64.5115 26.8322C64.7058 26.6671 64.8178 26.425 64.8178 26.17V19.0514L65.5913 18.5956C65.8563 18.4394 66.0191 18.1547 66.0191 17.8471V13.1709C66.0191 12.7237 65.6811 12.3554 65.2467 12.3074V10.2283C65.4355 10.0689 65.5551 9.83062 65.5551 9.5644V6.41918C65.5551 6.14668 65.4297 5.90348 65.2334 5.74421V3.9148C65.2334 3.6527 65.115 3.40455 64.9114 3.23963L61.1494 0.193594C60.9947 0.0683511 60.8019 0 60.6026 0Z" fill="#8D8F9F"/>
<rect x="44.8031" y="3.92969" width="19.6505" height="19.6505" rx="9.82525" fill="#438EFF" fill-opacity="0.25"/>
<rect x="41.6591" y="0.786133" width="25.1527" height="25.1527" rx="12.5763" fill="#438EFF" fill-opacity="0.25"/>
<rect x="44.8031" y="56.5938" width="19.6505" height="19.6505" rx="9.82525" fill="#FFA34F" fill-opacity="0.29"/>
<rect x="42.4451" y="54.2363" width="25.1527" height="25.1527" rx="12.5763" fill="#FFA34F" fill-opacity="0.29"/>
<rect x="36.9429" y="48.7344" width="35.3709" height="35.3709" rx="17.6855" fill="#FFA34F" fill-opacity="0.29"/>
<rect x="33.0128" y="44.8037" width="43.2311" height="43.2311" rx="21.6156" fill="#FFA34F" fill-opacity="0.29"/>
<rect x="23.5806" y="160.348" width="19.6505" height="19.6505" rx="9.82525" fill="#FF4949" fill-opacity="0.3"/>
<rect x="21.2225" y="157.204" width="25.1527" height="25.1527" rx="12.5763" fill="#FF4949" fill-opacity="0.3"/>
<rect x="65.2396" y="161.134" width="19.6505" height="19.6505" rx="9.82525" fill="#FF4949" fill-opacity="0.3"/>
<rect x="62.0956" y="157.99" width="25.1527" height="25.1527" rx="12.5763" fill="#FF4949" fill-opacity="0.3"/>
</g>
</svg>
