<svg width="27" height="27" viewBox="0 0 27 27" fill="none" xmlns="http://www.w3.org/2000/svg">
<path d="M0 0H23.9258L26.9258 3V26.0859L0 0Z" fill="url(#paint0_linear_45_1748)"/>
<path d="M15.9328 5.74152L18.4243 8.0042L15.9328 10.2669L15.8513 10.3409L15.9328 10.4149L16.6678 11.0824L16.735 11.1435L16.8022 11.0824L19.308 8.80677L21.8138 11.0824L21.8811 11.1435L21.9483 11.0824L22.6833 10.4149L22.7648 10.3409L22.6833 10.2669L20.1918 8.0042L22.6833 5.74152L22.7648 5.66749L22.6833 5.59347L21.9483 4.92597L21.8811 4.86492L21.8138 4.92597L19.308 7.20162L16.8022 4.92597L16.735 4.86492L16.6678 4.92597L15.9328 5.59347L15.8513 5.66749L15.9328 5.74152Z" fill="#40C5CB" stroke="#40C5CB" stroke-width="0.2"/>
<defs>
<linearGradient id="paint0_linear_45_1748" x1="25.4258" y1="2" x2="11.9258" y2="16" gradientUnits="userSpaceOnUse">
<stop stop-color="#1E497A"/>
<stop offset="1" stop-color="#0B1E36"/>
</linearGradient>
</defs>
</svg>
